<?xml version="1.0" standalone="no"?>
<!DOCTYPE svg PUBLIC "-//W3C//DTD SVG 20010904//EN"
 "http://www.w3.org/TR/2001/REC-SVG-20010904/DTD/svg10.dtd">
<svg version="1.0" xmlns="http://www.w3.org/2000/svg"
 width="1800.000000pt" height="1200.000000pt" viewBox="0 0 1800.000000 1200.000000"
 preserveAspectRatio="xMidYMid meet">

<g transform="translate(0.000000,1200.000000) scale(0.100000,-0.100000)"
fill="#000000" stroke="none">
<path d="M3580 11709 c-14 -6 -42 -22 -63 -36 -31 -22 -42 -25 -56 -16 -14 9
-22 8 -35 -5 -15 -15 -16 -14 -16 8 0 20 -2 22 -10 10 -8 -12 -10 -12 -10 -1
0 10 -8 12 -31 7 -19 -3 -38 -1 -45 5 -32 27 -134 -25 -134 -67 0 -26 14 -33
55 -27 20 3 35 0 43 -10 9 -10 25 -13 56 -10 25 3 59 0 77 -6 26 -9 35 -8 49
4 23 20 24 20 63 -21 27 -29 43 -37 81 -41 33 -4 52 -1 64 9 24 21 48 28 59
17 5 -5 29 -12 54 -15 38 -5 49 -3 74 19 17 13 39 26 49 28 11 2 27 18 37 35
15 28 16 34 3 53 -12 17 -19 19 -34 11 -30 -16 -50 -12 -59 13 -8 21 -16 24
-73 26 -34 1 -81 6 -103 11 -49 12 -63 11 -95 -1z"/>
<path d="M4590 11711 c-46 -7 -90 -26 -90 -39 0 -4 -9 -8 -21 -9 -16 -2 -18 1
-9 12 17 20 4 35 -30 35 -23 0 -27 -3 -23 -20 6 -24 -19 -27 -57 -5 -39 22
-73 18 -119 -16 -36 -25 -54 -31 -109 -34 -36 -2 -76 2 -89 8 -43 19 -85 -47
-51 -81 21 -21 57 -14 70 13 12 28 28 31 58 13 15 -10 22 -10 31 -1 9 9 16 7
29 -9 14 -18 27 -21 69 -19 49 2 52 1 57 -26 5 -25 11 -29 42 -31 21 0 60 -4
88 -7 49 -6 52 -5 74 24 15 22 27 30 40 26 10 -3 21 -1 25 5 9 15 59 12 81 -6
17 -14 17 -15 1 -10 -12 4 -17 2 -14 -6 2 -7 11 -13 20 -13 9 0 23 -9 31 -20
12 -16 17 -18 27 -7 7 6 23 12 36 12 12 0 27 8 32 19 9 15 19 17 61 13 35 -3
50 -1 50 7 0 7 8 11 18 9 11 -2 26 3 35 11 11 9 17 10 17 2 0 -15 61 -70 78
-71 24 0 72 34 72 51 0 9 6 22 14 28 11 10 17 8 25 -6 9 -16 13 -16 32 -5 19
12 27 10 75 -23 37 -25 59 -35 73 -30 11 3 29 2 39 -4 11 -6 34 -13 53 -16 19
-3 38 -10 44 -16 5 -5 16 -9 26 -9 22 0 109 67 109 85 0 18 28 23 63 12 35
-12 39 -8 31 29 -9 40 -69 91 -88 74 -12 -9 -17 -7 -26 9 -6 12 -19 21 -28 21
-10 0 -23 5 -29 11 -9 9 -20 7 -45 -8 -33 -19 -37 -19 -120 -5 l-87 15 -34
-26 c-19 -14 -37 -23 -41 -20 -3 3 -12 0 -21 -7 -8 -7 -15 -9 -15 -5 0 4 -6 3
-13 -3 -7 -6 -23 -10 -34 -9 -26 1 -41 45 -21 58 35 23 -39 6 -97 -22 -53 -25
-69 -28 -80 -19 -8 7 -15 19 -15 26 0 11 -8 13 -27 8 -16 -3 -38 -7 -50 -8
-13 0 -23 -6 -23 -13 0 -23 -26 -19 -54 10 -47 46 -70 52 -166 38z m157 -93
c-3 -8 -6 -5 -6 6 -1 11 2 17 5 13 3 -3 4 -12 1 -19z"/>
<path d="M5830 11703 c-24 -9 -61 -46 -77 -77 -20 -38 -10 -88 28 -130 41 -47
73 -53 110 -21 33 27 44 30 54 15 3 -5 19 -10 35 -10 22 0 33 7 44 28 18 34
57 36 87 3 12 -12 32 -26 45 -31 31 -12 81 -2 88 17 5 12 9 13 21 3 7 -6 11
-18 8 -26 -6 -17 -1 -17 30 -3 17 7 31 8 42 1 21 -11 92 4 118 26 9 8 17 23
17 34 0 22 38 25 46 3 4 -8 12 -15 19 -15 8 0 20 -6 28 -14 12 -13 16 -12 27
10 17 30 35 30 79 0 44 -29 118 -41 123 -20 3 12 7 12 26 -2 16 -11 21 -22 17
-35 -8 -24 16 -25 50 -3 14 9 25 13 25 8 0 -4 7 1 15 12 14 19 15 19 21 -3 9
-32 32 -29 52 7 18 32 31 37 51 18 17 -18 83 -17 76 0 -3 8 0 12 7 9 7 -2 13
-13 13 -25 1 -32 11 -36 46 -18 33 16 114 23 105 8 -2 -4 21 -9 51 -9 55 -2
71 4 157 54 29 17 51 16 67 -3 10 -13 10 -17 0 -24 -9 -5 -10 -10 -2 -14 6 -4
11 -2 11 3 0 6 5 11 10 11 6 0 10 -9 10 -20 0 -26 18 -25 47 2 20 19 21 22 6
33 -9 7 -13 17 -9 23 12 19 50 14 64 -9 17 -26 37 -20 37 12 0 33 39 34 43 1
2 -14 9 -22 16 -19 7 3 21 -8 32 -24 23 -35 73 -49 86 -25 12 22 24 20 56 -9
34 -32 67 -41 97 -25 18 10 27 9 46 -3 13 -8 38 -18 56 -22 41 -8 70 19 79 75
8 46 20 59 29 30 8 -25 52 -60 77 -60 11 0 33 14 50 30 16 17 35 30 43 30 18
0 66 -26 77 -42 7 -10 12 -8 25 10 20 29 38 28 75 -3 34 -29 93 -34 124 -10
27 21 49 18 94 -10 22 -14 45 -25 52 -25 7 0 27 -9 43 -20 46 -31 81 -26 102
13 10 17 18 41 19 52 1 11 2 30 3 43 1 24 21 31 21 7 0 -8 5 -15 10 -15 6 0
30 -18 54 -40 24 -22 50 -40 59 -40 8 0 30 12 47 27 l32 27 27 -32 c16 -20 35
-32 51 -32 14 -1 36 -7 50 -15 14 -8 39 -14 57 -15 27 0 33 5 49 44 18 44 44
53 44 16 0 -11 5 -22 12 -26 7 -5 9 0 6 14 -4 15 -2 19 8 15 21 -8 37 -40 24
-48 -19 -12 1 -26 33 -23 18 1 42 -4 54 -10 12 -7 41 -12 65 -12 42 0 44 2 62
45 10 25 16 53 14 63 -4 15 1 17 29 14 23 -3 33 -9 33 -22 0 -19 82 -88 116
-96 11 -3 38 -4 60 -2 35 3 39 6 49 42 15 53 53 66 79 27 59 -88 225 -112 294
-43 20 20 20 20 0 25 -23 7 -16 24 16 37 21 9 21 9 -2 9 -15 1 -26 8 -29 20
-3 11 -11 22 -19 25 -16 6 -19 26 -5 26 5 0 16 -7 25 -15 8 -8 22 -15 30 -15
9 0 23 -11 31 -24 9 -13 27 -27 40 -30 14 -4 40 -20 58 -36 34 -29 76 -50 103
-50 21 0 66 77 59 102 -6 17 -4 19 17 13 32 -10 60 -36 54 -52 -8 -21 14 -15
51 13 31 23 35 24 55 10 12 -9 40 -16 62 -16 22 0 53 -9 72 -21 30 -18 65 -21
144 -10 2 1 -1 6 -8 13 -14 14 -16 38 -4 38 15 0 40 -66 35 -93 l-5 -27 73 5
c104 9 116 12 122 35 7 27 30 25 75 -5 39 -27 67 -32 78 -14 4 7 20 8 43 3 20
-4 58 -8 85 -10 43 -2 46 -1 25 10 -36 18 -31 42 9 38 40 -3 41 6 2 19 l-30
11 23 19 c13 11 17 18 9 19 -7 0 -11 4 -7 10 14 22 50 -8 60 -50 9 -37 17 -47
54 -67 56 -29 124 -30 170 -2 32 19 33 22 27 65 -7 54 3 56 50 9 19 -19 42
-35 50 -35 25 0 58 21 46 29 -6 4 -9 17 -6 29 5 18 10 20 25 11 10 -5 19 -18
19 -28 0 -9 12 -28 26 -40 19 -17 23 -26 15 -34 -6 -6 -11 -15 -11 -19 0 -12
89 -9 113 4 12 6 50 12 85 12 50 1 66 5 73 19 15 26 32 21 25 -7 -3 -14 -1
-28 4 -31 15 -10 100 34 100 52 0 8 7 13 18 11 11 -3 16 -12 15 -26 -2 -17 2
-22 20 -22 12 0 33 -7 46 -16 12 -9 49 -24 81 -34 55 -17 59 -17 85 0 34 22
56 66 49 94 -3 14 1 27 10 35 13 11 16 11 16 -1 0 -14 19 -17 119 -19 14 -1
42 -12 63 -25 20 -13 43 -24 49 -24 6 0 28 -15 50 -33 56 -48 149 -73 175 -47
8 8 19 8 38 0 45 -17 96 -11 186 20 85 29 124 59 62 47 -17 -4 -34 -2 -37 3
-9 14 30 30 74 30 34 0 44 5 59 28 20 33 52 32 52 -2 0 -12 11 -32 25 -44 28
-24 25 -46 -5 -37 -11 3 -20 0 -24 -11 -9 -24 2 -36 24 -24 28 15 63 12 101
-7 48 -25 143 -23 194 4 31 16 46 18 65 11 14 -6 60 -7 103 -4 58 4 82 10 99
26 12 11 30 20 39 20 10 0 24 6 32 14 8 8 33 20 57 26 27 7 44 18 47 31 3 10
7 19 10 19 10 0 30 -27 42 -57 18 -44 91 -109 131 -118 32 -7 37 -4 86 49 29
31 60 56 69 56 9 0 29 -9 44 -19 15 -11 51 -29 80 -40 29 -11 61 -27 71 -36
16 -14 21 -13 60 9 26 15 48 37 56 55 11 27 18 31 52 31 27 0 45 -6 58 -21 21
-24 73 -49 101 -49 10 0 26 14 35 30 21 37 42 40 36 5 -3 -13 0 -26 5 -28 6
-2 7 -9 3 -16 -5 -7 -14 -10 -22 -7 -19 7 -18 -18 1 -34 8 -7 15 -21 15 -32 0
-11 5 -28 10 -38 20 -38 31 -124 19 -146 -8 -16 -8 -35 -1 -70 12 -54 9 -63
-12 -45 -8 7 -20 9 -27 6 -16 -11 -4 -107 16 -117 8 -5 15 -17 15 -28 0 -28
11 -51 21 -44 5 3 4 -6 -2 -20 -10 -20 -8 -30 9 -58 12 -20 17 -40 13 -51 -8
-22 -26 -23 -26 -2 0 8 -4 15 -10 14 -5 0 -9 -8 -7 -17 1 -9 4 -37 6 -61 1
-25 8 -47 14 -49 7 -2 10 -8 7 -12 -6 -10 11 -45 33 -68 18 -20 15 -32 -8 -32
-11 0 -20 -4 -20 -10 0 -5 5 -10 10 -10 6 0 10 -7 10 -15 0 -8 -5 -15 -10 -15
-6 0 -13 7 -16 15 -4 8 -13 15 -20 15 -8 0 -17 7 -20 15 -7 17 -34 21 -34 5 0
-5 3 -10 8 -10 4 0 18 -18 32 -40 13 -22 28 -40 32 -40 4 0 8 -9 8 -21 0 -19
-1 -20 -17 -3 -16 16 -18 16 -21 1 -2 -9 2 -25 7 -36 14 -26 14 -31 -3 -31 -8
0 -17 7 -20 16 -5 14 -9 14 -22 3 -12 -10 -15 -25 -11 -56 3 -29 0 -46 -9 -54
-9 -8 -12 -24 -7 -56 5 -36 2 -50 -17 -75 -20 -27 -22 -37 -15 -107 3 -42 11
-95 17 -117 11 -46 61 -114 84 -114 8 0 14 -4 14 -9 0 -5 9 -7 20 -4 28 7 70
-5 70 -21 0 -7 -13 -16 -30 -19 -20 -5 -28 -11 -24 -21 6 -16 -13 -31 -40 -31
-23 0 -116 -130 -116 -163 0 -12 7 -38 14 -57 13 -31 13 -39 -1 -72 -23 -56
-12 -167 19 -193 23 -19 16 -26 -21 -21 -14 2 -13 -1 27 -59 20 -30 23 -42 17
-90 -5 -43 -2 -68 14 -109 l20 -53 -30 -52 c-33 -60 -36 -81 -13 -90 12 -4 14
-13 10 -32 -6 -23 -4 -25 15 -19 20 7 21 5 15 -21 -7 -27 -16 -38 -41 -48 -5
-2 -1 -10 9 -19 19 -14 19 -15 -3 -43 -21 -26 -22 -36 -16 -97 3 -38 6 -109 6
-158 0 -65 5 -104 18 -140 15 -38 17 -57 10 -83 -5 -19 -6 -44 -1 -57 14 -43
7 -151 -11 -164 -11 -8 -17 -26 -17 -52 0 -23 -7 -54 -15 -69 -12 -23 -13 -53
-8 -144 5 -101 3 -120 -13 -150 -25 -48 -22 -219 5 -281 17 -38 18 -46 5 -83
-9 -25 -12 -56 -9 -77 4 -22 2 -40 -4 -44 -16 -9 -13 -36 8 -77 11 -22 15 -42
10 -50 -11 -16 -11 -59 -1 -75 6 -9 17 -10 40 -4 19 6 34 6 37 0 4 -5 -4 -9
-17 -9 -35 0 -48 -13 -55 -55 -5 -34 -4 -37 12 -28 13 8 22 6 36 -8 11 -11 19
-23 19 -29 0 -5 5 -10 10 -10 20 0 9 -18 -15 -24 -14 -4 -25 -13 -25 -20 0 -8
-10 -16 -22 -19 -22 -6 -23 -12 -26 -107 l-3 -100 25 0 c27 0 42 -15 26 -25
-6 -4 -17 -1 -25 5 -8 7 -15 9 -15 4 -1 -5 -3 -31 -6 -59 -9 -80 -7 -95 14
-144 39 -93 43 -113 25 -133 -15 -17 -15 -18 0 -18 25 0 21 -15 -8 -34 -14 -9
-25 -21 -25 -26 0 -6 -9 -19 -20 -30 -23 -23 -25 -53 -6 -106 11 -32 11 -60 2
-149 -21 -215 -5 -345 43 -345 10 0 24 -7 31 -15 17 -21 36 -19 58 6 11 11 26
20 33 19 32 -5 40 0 34 21 -5 14 -2 25 6 30 8 5 13 21 11 38 -2 21 3 33 18 44
31 22 51 95 39 143 -12 47 -13 76 -3 127 4 24 2 46 -6 61 -9 18 -9 29 -1 44
18 34 13 79 -13 109 -18 21 -27 25 -37 16 -8 -6 -23 -7 -34 -3 -18 7 -18 8 -3
15 14 6 16 11 7 27 -9 17 -18 20 -55 15 -54 -6 -58 6 -6 19 30 7 37 14 36 33
-1 17 8 27 33 39 20 9 33 23 33 34 0 11 11 29 25 42 29 27 35 83 10 92 -8 4
-15 12 -15 20 0 8 -10 35 -21 60 l-22 45 27 28 c28 29 32 54 16 97 -6 16 -7
30 -2 33 33 21 58 144 31 153 -8 3 -7 17 4 49 9 27 13 62 10 86 -4 28 0 48 12
66 17 26 16 28 -19 77 -38 53 -45 76 -21 66 31 -12 15 33 -20 54 l-35 22 24
31 c34 44 49 88 36 101 -5 5 -10 14 -10 18 0 13 28 9 33 -4 3 -10 9 -9 22 3
14 13 15 21 6 38 -9 16 -8 26 3 44 12 18 13 31 5 60 -5 20 -14 39 -19 42 -6 4
-10 26 -10 51 0 51 -14 84 -35 84 -8 0 -15 5 -15 11 0 5 4 8 9 5 4 -3 6 6 3
19 -2 14 -11 25 -19 25 -20 0 -10 24 12 28 10 2 21 -2 25 -8 15 -25 32 1 25
39 -3 20 -7 66 -8 102 -2 66 -16 99 -43 99 -8 0 -14 7 -14 15 0 8 0 18 0 23 0
4 4 7 9 7 20 0 22 15 5 47 -10 18 -17 43 -15 56 2 15 -3 22 -14 22 -13 0 -15
5 -9 18 4 9 9 37 12 61 3 33 11 50 32 67 21 18 29 37 35 76 14 99 11 149 -9
163 -12 10 -16 20 -11 37 l6 23 -18 -21 c-17 -20 -53 -39 -53 -28 0 3 12 21
28 40 17 21 36 34 51 34 20 0 23 4 18 27 -3 16 4 42 19 71 38 72 33 94 -28
125 -30 16 -54 23 -56 17 -6 -18 -22 -11 -22 10 0 11 6 23 14 26 8 3 16 14 19
25 3 10 12 19 21 19 22 0 20 23 -3 44 -29 26 -44 75 -26 83 8 3 12 9 9 14 -10
17 17 51 37 46 16 -4 19 -2 14 14 -4 13 2 30 19 49 37 45 40 65 15 99 -21 29
-21 31 -5 55 9 15 21 26 26 26 15 0 12 77 -4 108 -7 15 -16 48 -20 73 -7 45
-9 47 -51 59 -49 14 -54 22 -27 42 10 7 21 21 25 32 8 19 -9 49 -23 41 -7 -4
-50 57 -50 71 0 2 9 4 20 4 16 0 19 4 12 16 -6 11 -1 23 20 44 34 34 37 81 8
110 -22 22 -17 47 12 68 19 14 25 52 8 52 -13 0 -13 32 2 67 9 22 12 24 15 10
6 -23 23 -12 23 16 0 12 11 30 25 42 l24 20 -14 100 c-17 128 -27 155 -59 155
-13 0 -29 7 -36 15 -10 12 -4 21 29 53 23 21 41 44 41 50 0 19 -50 71 -73 74
-14 2 -23 11 -25 26 -2 12 -8 22 -13 22 -6 0 1 11 15 24 28 25 35 73 15 93 -8
8 -4 21 17 49 31 40 73 169 73 224 1 19 -6 46 -14 60 -8 14 -17 31 -21 37 -3
7 9 31 26 54 35 43 50 90 56 179 2 30 4 62 5 70 4 33 -2 49 -21 55 -11 3 -20
12 -20 19 0 7 9 25 20 39 11 14 20 31 20 39 -1 19 -36 58 -52 58 -20 0 -38 21
-38 43 0 16 3 17 15 7 12 -10 14 -7 13 23 -1 29 -6 38 -29 47 -15 7 -30 18
-32 25 -3 7 -19 15 -36 17 -25 4 -31 1 -31 -14 0 -21 -32 -31 -81 -26 -29 2
-34 0 -37 -19 -4 -25 -30 -31 -50 -11 -9 9 -12 8 -12 -4 0 -15 -40 -48 -58
-48 -14 0 -22 38 -9 43 6 2 7 9 3 16 -6 9 -10 9 -19 -2 -7 -8 -38 -18 -70 -22
l-57 -6 2 32 c3 27 -1 33 -23 39 -15 4 -40 18 -57 30 -26 19 -39 22 -81 17
-47 -6 -127 -43 -159 -74 -17 -17 -23 -16 -52 4 -21 15 -23 15 -17 1 6 -17
-11 -28 -42 -28 -14 0 -17 6 -13 25 2 14 0 25 -6 25 -6 0 -12 6 -14 14 -2 10
-23 -4 -61 -40 -64 -60 -85 -64 -105 -21 -7 15 -18 25 -23 21 -6 -4 -6 -11 2
-20 13 -16 -4 -44 -27 -44 -16 0 -19 16 -4 25 15 9 12 22 -6 29 -10 4 -22 -1
-29 -10 -11 -15 -13 -15 -28 6 -9 13 -14 33 -11 45 5 19 0 21 -50 23 -100 5
-130 5 -194 -3 -45 -6 -70 -4 -87 5 -16 9 -46 11 -92 7 -37 -3 -100 -1 -139 5
-59 9 -80 8 -120 -5 -48 -15 -167 -15 -204 1 -8 3 -61 6 -117 7 -95 0 -102 -1
-105 -20 -2 -12 -12 -21 -25 -23 -13 -2 -24 -13 -27 -28 -9 -34 -43 -32 -57 3
-6 15 -8 36 -5 46 4 15 2 16 -10 6 -8 -6 -14 -17 -14 -23 0 -6 -14 -28 -31
-49 -22 -27 -35 -35 -43 -28 -7 6 -22 8 -34 4 -22 -5 -31 10 -12 22 22 13 -3
25 -53 25 -29 0 -59 5 -67 10 -12 7 -16 4 -20 -18 -9 -45 -34 -38 -58 18 -12
28 -28 50 -37 50 -8 0 -25 6 -36 13 -18 11 -24 8 -48 -20 -15 -18 -33 -33 -39
-33 -7 0 -21 -6 -32 -12 -16 -10 -22 -10 -28 -1 -4 7 -45 26 -91 44 -80 30
-85 31 -139 18 -59 -13 -108 -14 -203 -4 -58 7 -98 -5 -133 -40 -14 -15 -23
-15 -97 -1 -45 9 -89 22 -99 31 -19 17 -77 20 -100 5 -13 -9 -12 -13 9 -30 13
-11 18 -20 12 -20 -6 0 -17 -11 -23 -25 -6 -14 -17 -25 -25 -25 -20 0 -16 20
5 21 15 0 15 1 -2 12 -11 7 -27 20 -37 29 -34 32 -98 58 -143 58 -47 0 -45 1
-141 -86 -46 -42 -49 4 -3 49 38 38 23 46 -43 24 -28 -10 -54 -12 -77 -6 -20
4 -39 6 -42 4 -4 -2 -30 5 -59 15 -64 25 -94 25 -148 1 -66 -31 -84 -54 -77
-101 6 -39 6 -40 -22 -40 -20 0 -37 9 -54 30 -27 33 -47 38 -57 14 -5 -13 -7
-13 -14 -2 -7 11 -13 10 -34 -3 -25 -15 -27 -14 -64 22 -40 40 -80 56 -108 43
-10 -4 -22 -6 -28 -5 -52 13 -101 6 -152 -21 l-54 -29 -42 44 c-54 56 -85 71
-134 63 -39 -6 -200 -27 -218 -28 -5 0 -30 3 -54 7 -42 8 -43 7 -32 -13 9 -18
8 -22 -12 -27 -12 -4 -34 -19 -49 -32 l-27 -26 -29 32 -29 32 -17 -25 c-9 -14
-24 -26 -32 -26 -12 0 -14 -5 -9 -17 4 -10 10 -28 12 -40 4 -18 2 -21 -16 -16
-15 4 -20 11 -16 23 5 15 2 17 -15 13 -19 -5 -20 -3 -14 23 9 40 13 44 34 44
14 0 30 18 30 34 0 2 -20 11 -45 20 -38 15 -51 16 -82 5 -21 -6 -43 -16 -50
-21 -8 -6 -22 -2 -42 13 -26 19 -37 21 -88 14 -32 -3 -73 -7 -90 -8 -26 0 -30
-3 -21 -14 15 -19 5 -25 -26 -17 -18 4 -25 11 -22 20 8 20 -4 18 -70 -13 -33
-15 -65 -26 -73 -25 -7 2 -10 -1 -7 -7 10 -16 -12 -23 -34 -11 -15 8 -19 17
-15 31 7 22 -1 23 -35 4 -35 -20 -63 -18 -88 5 -38 36 -71 21 -35 -16 17 -16
16 -17 -9 -12 -15 3 -29 2 -30 -3 -6 -15 -87 14 -92 34 -3 12 -9 16 -17 11 -7
-4 -47 -9 -89 -11 -118 -5 -145 -8 -150 -13 -9 -10 -94 -32 -140 -37 -25 -3
-53 -12 -62 -21 -15 -13 -18 -13 -18 0 0 25 26 52 44 45 28 -11 17 12 -14 28
-52 27 -131 11 -166 -34 -9 -12 -14 -10 -29 13 -28 43 -95 72 -95 42 0 -20
-18 -30 -33 -18 -19 15 -61 26 -53 14 3 -6 2 -13 -3 -16 -5 -4 -13 -1 -16 4
-4 7 -19 9 -35 5 -16 -4 -31 -2 -35 5 -5 7 -31 9 -78 5 -88 -7 -132 -20 -173
-51 -28 -20 -34 -22 -44 -9 -7 8 -24 15 -39 15 -14 0 -46 11 -70 25 -50 29
-101 32 -140 9 -26 -15 -32 -15 -87 4 -76 26 -143 32 -180 17 -16 -6 -47 -10
-69 -8 -43 5 -103 -15 -125 -41 -17 -22 -39 -20 -34 2 4 12 -9 25 -45 45 -42
23 -60 27 -129 27 -77 0 -82 -1 -124 -36 -23 -20 -44 -40 -46 -45 -2 -5 -11
-9 -19 -9 -14 0 -14 2 1 19 17 18 16 19 -11 25 -47 11 -153 3 -153 -10 0 -6
-11 -19 -24 -27 -23 -15 -24 -15 -30 8 -4 15 0 38 9 55 9 17 14 30 13 30 -2 0
-27 -9 -57 -20 -43 -17 -60 -19 -84 -10 -68 23 -141 6 -164 -40 -10 -20 -20
-24 -57 -25 -39 0 -45 2 -41 16 3 10 0 21 -7 25 -6 4 -14 2 -16 -4 -6 -18 -27
-14 -47 8 -25 28 -123 55 -155 43z m58 -52 c3 -8 -1 -12 -9 -9 -7 2 -15 10
-17 17 -3 8 1 12 9 9 7 -2 15 -10 17 -17z m32 -5 c0 -3 -4 -8 -10 -11 -5 -3
-10 -1 -10 4 0 6 5 11 10 11 6 0 10 -2 10 -4z m2570 -26 c0 -5 -4 -10 -10 -10
-5 0 -10 5 -10 10 0 6 5 10 10 10 6 0 10 -4 10 -10z m-190 -15 c0 -8 -7 -15
-15 -15 -9 0 -12 6 -9 15 4 8 10 15 15 15 5 0 9 -7 9 -15z m5870 -15 c0 -15
-37 -12 -43 4 -3 8 -3 17 0 20 8 7 43 -12 43 -24z m-3403 14 c-3 -3 -12 -4
-19 -1 -8 3 -5 6 6 6 11 1 17 -2 13 -5z m1363 -8 c0 -20 -19 -31 -32 -18 -6 6
-7 15 -4 21 10 16 36 13 36 -3z m644 -28 c5 -9 7 -20 3 -24 -8 -8 -47 24 -47
38 0 15 32 5 44 -14z m266 -13 c0 -8 -7 -15 -15 -15 -8 0 -15 7 -15 15 0 8 7
15 15 15 8 0 15 -7 15 -15z m-2100 -5 c0 -5 -7 -10 -16 -10 -8 0 -12 5 -9 10
3 6 10 10 16 10 5 0 9 -4 9 -10z m-3920 -16 c0 -8 -4 -12 -10 -9 -5 3 -10 10
-10 16 0 5 5 9 10 9 6 0 10 -7 10 -16z m7094 7 c7 -11 -22 -23 -35 -15 -5 3
-9 9 -9 15 0 12 37 12 44 0z m46 -1 c0 -5 -4 -10 -10 -10 -5 0 -10 5 -10 10 0
6 5 10 10 10 6 0 10 -4 10 -10z m-4155 -20 c3 -5 1 -10 -4 -10 -6 0 -11 5 -11
10 0 6 2 10 4 10 3 0 8 -4 11 -10z m3865 0 c0 -5 -4 -10 -10 -10 -5 0 -10 5
-10 10 0 6 5 10 10 10 6 0 10 -4 10 -10z m1494 -35 c3 -8 12 -15 20 -15 23 0
32 -65 13 -85 -22 -21 -27 -19 -27 14 0 20 -6 30 -20 34 -15 4 -20 14 -20 36
0 33 23 44 34 16z m-4214 -19 c0 -3 -4 -8 -10 -11 -5 -3 -10 -1 -10 4 0 6 5
11 10 11 6 0 10 -2 10 -4z m1555 -46 c3 -5 -1 -10 -9 -10 -9 0 -16 5 -16 10 0
6 4 10 9 10 6 0 13 -4 16 -10z m2957 -1305 c-3 -21 -9 -34 -16 -32 -14 5 -15
25 -3 54 14 32 24 20 19 -22z m43 -125 c3 -5 1 -10 -4 -10 -6 0 -11 5 -11 10
0 6 2 10 4 10 3 0 8 -4 11 -10z m-50 -30 c-5 -8 -11 -8 -17 -2 -6 6 -7 16 -3
22 5 8 11 8 17 2 6 -6 7 -16 3 -22z m165 -120 c0 -5 -5 -10 -11 -10 -5 0 -7 5
-4 10 3 6 8 10 11 10 2 0 4 -4 4 -10z m-111 -390 c36 -31 37 -60 1 -60 -13 0
-20 7 -20 20 0 11 -5 20 -11 20 -6 0 -8 -9 -4 -20 5 -17 2 -20 -24 -20 -24 0
-31 4 -31 20 0 11 7 20 15 20 8 0 15 8 15 18 0 40 15 40 59 2z m81 -10 c0 -5
-5 -10 -11 -10 -5 0 -7 5 -4 10 3 6 8 10 11 10 2 0 4 -4 4 -10z m-125 -1080
c3 -5 2 -10 -4 -10 -5 0 -13 5 -16 10 -3 6 -2 10 4 10 5 0 13 -4 16 -10z m175
-1103 c0 -5 -8 -7 -17 -5 -12 2 -19 14 -21 33 l-3 30 20 -25 c12 -14 21 -29
21 -33z"/>
<path d="M2609 11681 c-22 -18 -22 -19 -7 -77 9 -32 19 -70 24 -83 6 -20 4
-23 -9 -18 -19 7 -24 -17 -6 -29 6 -3 8 -17 5 -30 -5 -20 -3 -24 16 -24 13 -1
34 -7 48 -15 14 -8 31 -14 38 -15 16 0 44 63 41 94 -3 39 2 41 25 12 30 -36
48 -26 44 22 -3 36 -2 37 34 40 20 2 42 10 48 18 18 21 64 17 85 -6 26 -29 86
-24 100 7 5 12 19 24 30 25 15 2 19 9 17 27 -3 31 2 27 -67 47 -95 26 -109 27
-159 10 -59 -20 -113 -20 -159 -1 -51 21 -119 19 -148 -4z"/>
<path d="M8495 11470 c3 -5 8 -10 11 -10 2 0 4 5 4 10 0 6 -5 10 -11 10 -5 0
-7 -4 -4 -10z"/>
<path d="M2638 11341 c-7 -13 -12 -42 -11 -65 9 -170 7 -203 -10 -254 -24 -67
-17 -92 35 -143 32 -31 39 -42 29 -52 -9 -9 -16 -9 -31 1 -24 15 -25 4 -3 -42
16 -35 16 -36 -10 -56 -25 -20 -27 -26 -25 -93 2 -86 3 -90 29 -77 16 9 19 7
19 -13 0 -13 15 -41 34 -63 33 -39 33 -40 16 -62 l-19 -22 -3 22 c-4 32 -30
29 -39 -4 -9 -36 8 -93 38 -122 l24 -24 -33 -25 c-27 -21 -30 -28 -19 -41 7
-8 10 -20 6 -26 -3 -5 2 -10 13 -10 31 0 36 -30 10 -57 -20 -21 -24 -22 -34
-9 -6 9 -19 16 -28 16 -13 0 -16 -12 -16 -66 0 -60 -3 -70 -31 -102 -30 -33
-31 -39 -26 -96 5 -65 28 -121 61 -148 18 -15 19 -17 4 -18 -9 0 -20 5 -23 10
-3 6 -11 10 -18 10 -6 0 3 -15 21 -33 28 -29 30 -35 18 -52 -17 -26 -31 -73
-46 -162 -16 -90 -3 -150 33 -155 21 -3 22 -7 19 -70 -3 -51 0 -74 15 -98 18
-31 18 -32 -1 -45 -44 -32 -64 -138 -31 -165 8 -7 15 -17 15 -23 0 -6 7 -19
17 -29 15 -17 14 -18 -15 -18 -27 0 -32 -4 -31 -22 1 -46 26 -164 41 -195 l15
-31 -37 -21 c-54 -30 -63 -60 -58 -198 3 -108 6 -123 32 -171 l29 -52 -25 -28
c-14 -15 -29 -36 -32 -48 -9 -29 17 -108 49 -150 25 -32 27 -41 21 -91 -4 -32
-2 -70 5 -93 10 -32 9 -42 -5 -61 -10 -15 -16 -44 -16 -77 0 -43 5 -57 25 -78
21 -21 23 -29 14 -40 -6 -8 -17 -14 -25 -14 -7 0 -25 -11 -41 -24 -27 -24 -28
-25 -30 -160 -3 -121 -1 -142 18 -186 17 -40 26 -50 45 -50 13 0 24 -4 24 -9
0 -5 10 -11 21 -14 19 -5 21 -10 14 -44 -3 -21 -10 -42 -15 -47 -11 -11 -30 1
-30 20 0 8 -8 14 -19 14 -10 0 -26 10 -35 23 -16 21 -16 21 -3 -8 8 -16 30
-63 51 -104 40 -82 42 -93 21 -111 -19 -16 -19 -30 -1 -30 24 0 29 -19 12 -45
-9 -14 -12 -25 -6 -25 6 0 13 -8 17 -17 3 -10 12 -26 20 -35 13 -14 12 -18 -5
-27 -16 -9 -23 -4 -46 30 -14 23 -26 51 -26 62 0 18 -2 19 -10 7 -5 -8 -7 -31
-5 -50 3 -19 7 -70 9 -113 2 -63 7 -82 25 -101 18 -19 21 -30 15 -66 -4 -23
-3 -45 2 -49 25 -18 44 -50 38 -65 -9 -23 -23 -20 -30 8 -5 21 -31 43 -40 33
-2 -1 2 -36 8 -77 8 -55 8 -85 -1 -119 -8 -34 -9 -63 -1 -111 6 -36 14 -92 18
-125 4 -33 18 -82 31 -108 21 -44 22 -49 7 -66 -23 -25 -20 -31 14 -31 28 0
30 -2 20 -20 -6 -12 -22 -25 -34 -30 -13 -5 -26 -18 -29 -29 -4 -18 -2 -20 18
-15 12 3 26 1 29 -4 10 -16 -23 -35 -59 -34 -34 1 -49 -18 -25 -33 5 -3 7 -12
3 -20 -3 -9 7 -40 22 -69 24 -48 26 -58 16 -87 -6 -17 -11 -46 -11 -64 0 -18
-10 -47 -23 -66 -13 -19 -26 -42 -30 -51 -9 -24 18 -109 43 -136 12 -12 18
-27 15 -33 -4 -6 1 -16 10 -23 14 -10 15 -17 6 -34 -16 -29 -14 -85 4 -108 22
-29 18 -77 -10 -131 -22 -41 -25 -55 -19 -101 6 -47 4 -56 -16 -77 -19 -21
-22 -31 -17 -70 4 -24 18 -63 33 -85 14 -22 24 -46 20 -55 -3 -8 0 -15 6 -15
7 0 4 -6 -6 -13 -17 -12 -17 -18 -6 -51 10 -32 9 -40 -7 -63 -40 -56 -41 -64
-38 -182 2 -64 9 -129 14 -144 6 -15 29 -47 53 -73 23 -25 38 -48 32 -52 -13
-10 -32 -52 -39 -88 -8 -41 9 -82 48 -117 21 -18 28 -30 20 -33 -7 -3 -13 -14
-13 -25 0 -10 -7 -19 -15 -19 -8 0 -15 6 -15 14 0 7 -7 20 -17 27 -15 13 -16
11 -9 -16 4 -16 16 -39 25 -50 10 -11 21 -32 25 -48 5 -23 3 -29 -19 -37 -14
-5 -25 -16 -25 -25 0 -8 -4 -15 -10 -15 -14 0 -12 -32 5 -73 19 -45 19 -94 0
-127 -19 -34 -19 -90 1 -119 16 -22 15 -25 -5 -61 -26 -47 -27 -63 -2 -55 33
10 48 -31 26 -72 -10 -18 -21 -33 -24 -33 -3 0 -6 -55 -6 -123 0 -104 -3 -125
-18 -140 -25 -25 -20 -82 8 -82 14 0 21 -8 23 -27 2 -16 9 -28 18 -28 18 0 18
-14 -1 -30 -17 -14 -20 -40 -5 -40 16 0 12 -21 -8 -39 -11 -9 -24 -26 -30 -38
-15 -27 -16 -100 -2 -108 6 -3 10 -31 10 -61 0 -53 1 -54 21 -43 20 10 21 9
14 -29 -5 -30 -2 -47 10 -65 17 -27 3 -49 -18 -28 -18 18 -24 13 -19 -18 2
-15 -3 -42 -12 -59 -36 -70 -9 -152 49 -152 28 0 45 -27 25 -40 -8 -5 -10 -18
-5 -39 6 -30 -6 -43 -20 -21 -10 16 -28 11 -21 -6 8 -21 -23 -126 -42 -140
-13 -10 -13 -16 1 -57 11 -34 12 -47 4 -50 -9 -3 -9 -10 1 -29 10 -18 11 -35
4 -64 -14 -55 -10 -84 16 -112 16 -19 19 -28 11 -38 -6 -7 -8 -22 -4 -34 4
-11 2 -20 -4 -20 -6 0 -11 6 -11 13 0 8 -12 24 -26 38 l-27 24 7 -30 c10 -41
52 -94 81 -101 13 -3 51 -4 84 -2 34 1 62 0 64 -5 2 -8 69 14 78 27 4 5 12 5
18 1 9 -5 9 -10 1 -20 -14 -17 -5 -35 16 -35 8 0 32 11 54 25 46 29 101 33
121 8 42 -50 184 -59 184 -11 0 15 68 12 97 -3 21 -11 108 10 124 30 14 19 48
6 40 -14 -12 -32 26 -29 56 4 20 22 33 30 40 23 6 -6 6 -12 -2 -17 -12 -7 2
-18 60 -47 14 -6 27 -13 29 -15 3 -2 -8 -17 -24 -33 -27 -28 -27 -31 -12 -48
22 -24 21 -39 -1 -46 -10 -4 -31 -19 -46 -35 l-28 -29 24 -41 c12 -23 28 -39
35 -36 14 5 43 -20 43 -37 0 -6 -9 -8 -21 -5 -17 5 -20 2 -16 -14 3 -10 1 -19
-4 -19 -5 0 -9 -19 -8 -42 0 -24 -2 -66 -6 -95 -7 -46 -4 -58 20 -98 17 -31
39 -52 61 -61 63 -26 91 -17 119 40 16 33 48 31 89 -4 20 -18 55 -38 79 -45
23 -7 41 -18 39 -24 -4 -19 23 -23 54 -6 39 20 46 19 104 -10 60 -30 105 -33
119 -6 16 28 71 57 124 64 61 9 87 23 87 48 0 20 4 23 53 33 32 7 37 35 7 43
-30 8 -24 23 10 23 27 0 30 -4 36 -40 10 -64 28 -48 21 19 -6 50 -4 60 10 66
13 4 14 8 5 14 -10 6 -9 11 3 21 13 11 21 11 36 2 27 -17 35 8 19 60 -12 41
-12 42 26 73 33 28 38 38 42 87 4 58 -9 98 -33 98 -8 0 -22 16 -31 35 -9 19
-24 35 -33 36 -13 0 -13 2 3 12 40 25 86 70 86 83 0 8 9 23 21 35 12 12 19 29
16 40 -4 16 -1 18 21 13 56 -12 62 -16 68 -42 3 -15 10 -40 16 -55 8 -20 8
-31 -1 -40 -16 -16 -14 -37 5 -37 8 0 40 12 70 27 53 26 54 27 32 39 -20 11
-21 13 -5 18 50 17 52 19 18 25 -33 6 -34 7 -17 24 10 9 13 17 7 17 -6 0 -11
7 -11 16 0 9 3 14 8 12 51 -25 61 -34 65 -57 8 -37 63 -89 108 -103 49 -14
105 -3 112 22 3 11 10 20 16 20 15 0 14 -37 -1 -43 -7 -2 -1 -8 14 -12 21 -5
35 -1 61 19 34 26 67 34 67 16 0 -5 -4 -10 -10 -10 -15 0 -12 -27 4 -33 17 -7
10 -46 -10 -54 -8 -3 -14 -14 -14 -24 0 -21 44 -43 67 -35 8 3 22 0 33 -6 15
-10 23 -9 39 6 12 11 21 26 21 34 0 9 3 12 7 9 9 -10 33 13 33 32 0 9 7 29 15
45 9 16 13 36 11 43 -3 8 2 13 15 13 23 0 38 -29 20 -39 -8 -6 -4 -13 14 -25
25 -17 28 -17 46 0 13 12 37 17 81 18 l63 1 9 43 c8 33 15 44 35 49 29 7 54
-21 45 -50 -6 -18 -3 -19 24 -14 19 4 42 1 59 -8 36 -19 80 -19 134 1 64 23
197 20 223 -6 17 -16 18 -23 8 -45 -19 -41 -15 -120 8 -157 45 -74 12 -204
-61 -239 -18 -9 -45 -31 -60 -48 -23 -28 -28 -30 -39 -16 -7 8 -24 15 -39 15
-33 0 -149 -36 -178 -56 -20 -13 -23 -13 -23 1 0 19 -16 20 -27 0 -6 -10 -12
-11 -23 -4 -11 8 -12 12 -2 16 6 2 12 13 12 24 0 14 -7 19 -26 19 -14 0 -39
11 -56 25 -52 44 -161 56 -175 19 -7 -20 -27 -17 -48 6 -9 10 -42 25 -72 31
l-55 13 6 44 c5 39 3 46 -24 69 -35 29 -38 46 -9 67 21 14 21 15 4 33 -11 11
-33 18 -56 18 -45 0 -92 -40 -110 -92 -6 -18 -15 -33 -20 -33 -12 0 -48 -78
-49 -103 0 -11 13 -23 34 -32 38 -16 51 -42 47 -98 -2 -25 2 -39 12 -43 8 -3
22 -24 31 -48 9 -23 38 -63 65 -90 l48 -48 58 11 c32 6 63 15 69 20 8 7 26 5
51 -4 41 -15 85 -19 85 -9 0 3 -5 15 -11 26 -11 20 -9 20 37 13 27 -4 54 -11
61 -17 13 -10 38 -5 92 20 26 12 36 13 39 4 2 -7 8 -12 13 -12 6 0 21 -13 35
-29 31 -38 98 -64 141 -56 35 6 53 29 53 68 0 15 10 31 25 41 14 9 25 25 25
36 0 19 2 19 40 -6 38 -26 41 -26 74 -10 44 21 56 20 56 -2 0 -17 6 -18 54
-11 30 4 68 15 83 24 36 21 73 73 74 106 1 28 -22 94 -39 111 -8 8 -3 20 19
47 20 25 29 46 29 71 0 20 5 41 12 48 19 19 -30 112 -59 112 -27 0 -29 7 -6
32 14 16 15 21 2 44 -15 30 -13 73 4 91 9 8 25 9 62 2 51 -10 132 -4 150 11 6
5 27 3 49 -4 28 -10 50 -11 84 -3 34 7 56 6 81 -3 30 -11 36 -10 47 4 11 16
13 16 21 1 5 -9 31 -22 57 -30 l48 -15 37 39 c35 38 38 39 88 34 34 -4 58 -1
68 7 18 15 36 4 33 -18 -2 -13 4 -17 27 -17 23 0 30 5 35 25 6 24 6 24 40 -14
38 -41 86 -69 137 -80 27 -6 34 -3 49 19 33 50 108 74 164 51 14 -5 28 -10 32
-10 3 -1 10 -4 14 -8 11 -12 72 -9 79 3 9 14 105 1 126 -17 20 -18 82 -19 77
-2 -3 7 -14 13 -26 13 -35 0 -30 20 7 23 24 3 40 -3 57 -19 28 -26 141 -51
197 -42 30 4 41 12 48 32 5 14 12 33 16 41 3 8 7 21 7 29 2 26 24 22 47 -8 12
-17 26 -28 31 -25 4 3 8 1 8 -5 0 -5 -6 -11 -13 -14 -9 -3 -9 -7 2 -20 14 -18
47 -21 100 -11 31 6 31 7 10 18 -32 16 -24 31 18 33 31 1 45 -6 80 -38 67 -61
110 -71 213 -47 40 9 58 20 82 50 34 43 79 71 102 62 8 -3 23 -1 33 4 14 9 20
6 30 -11 9 -17 22 -23 60 -24 97 -5 104 -4 135 29 28 30 31 31 43 15 13 -18
85 -47 116 -47 9 0 26 11 37 25 11 14 24 25 28 25 5 0 34 -27 65 -59 55 -59
120 -91 155 -77 20 8 56 86 50 109 -6 25 10 47 34 47 12 0 23 -13 31 -37 17
-53 59 -113 78 -113 21 0 121 51 121 62 0 18 57 7 79 -16 36 -38 158 -47 144
-10 -3 9 1 14 12 14 9 0 19 9 22 21 4 14 11 18 22 13 39 -16 47 -14 63 16 21
37 29 38 50 0 12 -21 25 -30 43 -30 14 0 42 -8 63 -19 70 -35 132 -38 132 -6
0 22 20 28 38 12 30 -26 80 -47 114 -47 40 0 53 8 62 38 6 19 14 22 56 22 27
0 50 4 52 9 4 13 67 18 70 6 2 -6 -7 -11 -19 -13 -19 -3 -23 -10 -23 -38 0
-39 6 -42 117 -48 46 -3 73 -1 76 7 2 7 18 8 53 1 27 -6 75 -10 108 -10 l58 1
17 42 c26 68 32 69 85 24 26 -23 53 -41 59 -41 7 0 28 13 47 30 19 16 38 29
41 30 4 0 21 -13 39 -30 44 -42 102 -56 163 -40 44 11 50 10 62 -6 12 -17 17
-17 52 -5 54 19 66 30 52 48 -7 7 -9 16 -6 20 14 13 192 -1 213 -18 6 -5 24
-4 42 3 24 9 31 17 26 30 -10 34 11 18 51 -37 36 -50 43 -55 77 -55 30 0 45 8
78 41 26 27 40 50 40 67 0 25 18 66 21 50 1 -5 2 -11 3 -15 0 -5 11 -18 22
-29 12 -12 24 -28 26 -35 7 -22 129 -13 148 10 22 28 51 39 94 37 36 -1 40 -4
56 -46 l18 -45 73 -3 c41 -2 78 -7 82 -11 5 -5 -1 -24 -12 -42 -24 -39 -27
-97 -8 -124 9 -12 27 -18 53 -19 l39 -1 -3 -62 c-3 -70 9 -103 38 -103 11 0
20 -6 20 -14 0 -14 36 -46 52 -46 5 0 8 7 8 15 0 8 5 15 11 15 5 0 7 5 4 11
-4 6 2 13 14 16 11 3 18 9 15 14 -3 5 5 5 18 0 13 -5 22 -16 22 -25 -1 -11 7
-16 27 -16 15 0 30 -4 34 -10 3 -5 12 -7 20 -3 10 3 15 -1 15 -15 0 -11 -6
-22 -12 -25 -19 -7 1 -24 36 -33 26 -6 29 -5 23 15 -3 11 -1 24 4 27 5 3 7 9
4 14 -3 5 -1 11 5 15 5 3 14 -5 19 -18 7 -17 23 -28 55 -37 41 -11 49 -11 64
4 23 20 42 20 102 -1 40 -14 52 -15 79 -4 18 8 31 21 31 31 0 10 10 24 21 32
20 13 21 16 8 51 -7 20 -18 37 -25 37 -6 0 -15 8 -20 17 -6 15 -9 13 -15 -12
-7 -28 -7 -27 -6 10 2 45 -18 57 -59 35 -17 -10 -30 -10 -56 -1 -22 8 -34 8
-36 1 -2 -5 -10 -10 -18 -10 -8 0 -14 -7 -14 -15 0 -22 -7 -19 -45 19 -48 48
-155 63 -155 21 0 -8 -8 -19 -18 -24 -15 -8 -24 -4 -44 17 -14 15 -40 40 -57
55 -21 19 -31 37 -31 58 0 16 -5 37 -11 47 -16 26 2 148 21 143 42 -12 80 -12
80 -1 0 7 11 10 28 8 21 -2 27 1 26 15 -3 27 13 20 20 -9 4 -14 2 -32 -3 -38
-22 -27 27 -35 84 -14 29 10 36 8 67 -15 19 -15 51 -34 72 -42 l39 -16 36 34
c48 46 71 57 125 57 65 0 76 7 76 47 l0 35 26 -31 c14 -17 35 -31 46 -31 11 0
18 -5 15 -12 -2 -7 -11 -12 -21 -10 -12 2 -16 -5 -16 -26 0 -23 5 -31 25 -36
32 -8 64 -76 42 -90 -11 -7 -12 -14 -2 -35 11 -22 12 -46 6 -97 0 -7 -21 -15
-46 -18 -49 -8 -82 -31 -87 -61 -2 -14 9 -26 39 -42 23 -13 45 -33 48 -44 5
-16 12 -19 31 -15 17 5 24 2 24 -9 0 -19 11 -19 35 -1 19 14 19 15 1 35 -24
27 -7 27 26 1 29 -22 40 -17 32 16 -5 21 -2 24 19 24 15 0 38 5 52 12 25 11
26 15 24 82 -2 58 2 78 19 106 27 43 28 68 2 95 -18 19 -19 27 -9 85 12 74 15
80 32 56 15 -21 157 -37 157 -17 0 19 39 12 52 -9 7 -11 16 -20 20 -20 4 0 29
-14 56 -30 31 -20 64 -32 91 -33 37 -2 44 1 59 28 23 41 30 45 82 45 26 0 51
5 58 12 8 8 15 8 26 -1 11 -9 15 -9 19 1 3 7 6 3 6 -9 1 -12 -5 -23 -11 -26
-10 -3 -8 -10 5 -23 14 -15 19 -16 26 -6 5 9 32 15 75 16 50 2 73 8 96 24 38
29 42 28 64 -12 10 -19 31 -39 46 -44 16 -6 34 -25 45 -48 12 -26 20 -34 23
-24 3 8 11 20 18 25 6 6 15 27 18 48 5 29 12 37 28 37 17 0 20 4 15 29 -7 33
1 45 18 31 17 -14 25 8 13 39 -6 19 -11 22 -20 13 -21 -21 -26 -13 -27 41 -1
28 -2 74 -3 101 -1 31 3 51 10 54 16 5 15 29 0 35 -10 3 -10 9 0 26 14 24 16
57 3 65 -5 3 -7 15 -4 26 4 15 11 18 29 14 22 -6 24 -3 24 36 0 25 -4 39 -10
35 -5 -3 -10 2 -10 12 0 10 -7 27 -15 37 -8 10 -12 23 -9 27 3 5 0 9 -5 9 -16
0 -13 30 2 36 10 4 12 20 5 72 -5 47 -4 68 3 71 6 2 19 12 28 23 9 11 24 29
34 40 24 29 22 38 -15 78 -18 20 -38 57 -45 85 -14 50 -13 50 15 75 59 50 83
142 42 155 -26 8 -25 16 5 61 34 49 33 96 -1 114 -21 12 -24 19 -19 40 17 67
29 149 28 190 -4 154 -7 167 -41 209 -28 35 -31 44 -21 62 14 28 -5 99 -26 99
-8 0 -15 7 -15 15 0 8 4 15 9 15 6 0 3 17 -6 37 -14 35 -14 38 2 48 58 33 105
92 105 129 0 8 -5 27 -10 41 -9 24 -12 25 -26 14 -15 -12 -16 -10 -9 20 6 26
3 37 -16 57 -12 13 -33 24 -46 24 -26 0 -31 15 -8 24 8 3 15 13 15 22 0 9 12
30 26 47 17 21 24 38 21 55 -3 14 2 41 10 60 8 19 12 41 9 49 -3 7 8 32 24 55
39 53 39 86 0 120 -16 14 -30 35 -30 47 0 11 -8 36 -17 55 -16 34 -16 37 2 56
11 13 14 20 6 20 -7 0 -11 6 -8 13 2 6 17 12 33 12 27 0 29 3 31 40 6 92 1
140 -18 176 -10 21 -19 44 -19 50 0 7 -15 25 -32 41 l-33 28 26 22 c15 13 43
56 64 95 l37 73 -29 41 c-15 23 -37 47 -48 53 -65 35 -66 35 -53 59 7 12 11
32 9 44 -3 31 55 84 88 81 38 -4 37 24 -1 63 l-33 34 -3 -27 c-4 -35 -15 -36
-31 -2 -11 26 -7 49 9 39 5 -3 11 -1 14 4 3 5 -4 12 -17 15 -22 6 -22 6 -2 22
30 23 66 29 76 13 6 -11 11 -11 20 -2 19 19 -19 100 -56 121 -16 9 -31 20 -33
25 -2 4 -10 7 -18 7 -8 0 -14 5 -14 10 0 16 -26 12 -85 -15 -90 -41 -116 -108
-75 -194 l22 -49 -22 -30 c-27 -36 -24 -95 6 -140 27 -39 25 -99 -4 -151 -35
-64 -28 -133 19 -175 26 -23 34 -39 36 -68 1 -32 -2 -38 -19 -38 -12 0 -19 6
-17 18 2 20 -22 82 -33 82 -7 0 -2 -44 13 -115 5 -24 4 -44 -2 -51 -6 -7 -9
-32 -8 -56 2 -28 -4 -53 -15 -71 -22 -32 -16 -79 16 -132 15 -26 18 -44 14
-70 -4 -22 -3 -35 4 -35 5 0 10 -11 10 -25 0 -14 11 -38 25 -53 29 -31 28 -43
-3 -57 -32 -14 -31 -98 3 -165 25 -50 26 -87 3 -117 -7 -8 -5 -18 6 -28 21
-22 20 -37 -1 -33 -22 5 -59 -43 -75 -94 -9 -31 -8 -45 6 -82 9 -24 24 -47 32
-50 25 -10 52 -86 43 -124 -5 -26 -4 -35 8 -39 12 -5 11 -9 -8 -19 -16 -8 -30
-9 -41 -3 -15 8 -18 5 -19 -23 -2 -53 2 -82 13 -95 18 -22 1 -44 -27 -37 -32
8 -32 -3 1 -67 25 -50 25 -51 4 -56 -11 -3 -23 -16 -26 -29 -7 -28 16 -154 28
-154 5 0 -3 -21 -18 -46 l-27 -46 20 -47 c21 -51 20 -71 -5 -71 -12 0 -13 -3
-4 -12 7 -7 12 -22 12 -35 0 -13 5 -23 10 -23 17 0 11 -40 -10 -70 -11 -16
-23 -42 -26 -59 -7 -33 11 -113 33 -147 13 -21 9 -54 -8 -54 -5 0 -16 -14 -25
-32 -22 -42 -13 -98 22 -151 33 -49 34 -79 9 -187 -19 -83 -16 -100 31 -157
25 -30 25 -33 8 -39 -61 -19 -97 -40 -105 -62 -9 -24 -10 -24 -29 -7 -21 19
-30 16 -74 -28 -18 -19 -59 -20 -97 -3 -11 5 -24 0 -36 -14 l-20 -21 -44 26
c-24 13 -54 25 -66 25 -13 0 -23 5 -23 10 0 6 -8 10 -17 10 -14 0 -13 -3 5
-16 24 -17 30 -54 8 -54 -7 0 -19 7 -26 15 -8 9 -21 13 -37 9 -14 -4 -30 -1
-41 9 -11 9 -51 17 -114 21 -86 6 -101 5 -137 -14 -23 -11 -41 -24 -41 -28 0
-5 -6 -17 -14 -27 -13 -18 -15 -17 -34 21 -37 72 -156 114 -234 81 -33 -14
-37 -20 -45 -69 -8 -40 -7 -58 4 -75 17 -29 17 -30 -13 -36 -23 -4 -25 -2 -18
26 8 40 -13 27 -32 -20 -8 -18 -19 -31 -24 -28 -15 9 -12 26 7 40 17 12 17 15
1 48 -12 25 -26 37 -47 42 -17 4 -44 20 -60 36 -38 38 -48 37 -20 -1 27 -36
19 -49 -15 -26 -14 9 -32 16 -40 16 -7 0 -17 12 -20 26 -5 19 -11 24 -24 19
-54 -23 -135 -37 -155 -28 -15 7 -37 6 -73 -3 -28 -7 -74 -14 -102 -16 -29 -2
-52 -6 -52 -10 0 -17 -31 -6 -52 17 -25 28 -68 33 -92 10 -19 -19 -36 -19 -36
0 0 20 -7 19 -37 -5 -19 -15 -30 -17 -43 -10 -24 13 -101 13 -134 0 -24 -9
-26 -14 -26 -75 0 -36 -4 -65 -9 -65 -13 0 -19 32 -11 55 4 11 5 23 3 28 -8
14 -23 -4 -23 -28 0 -30 -20 -43 -32 -21 -5 9 -15 16 -22 16 -15 0 -39 47 -31
61 4 5 16 9 29 9 25 0 63 35 48 44 -5 3 -47 3 -93 0 -59 -4 -94 -12 -117 -26
l-33 -20 -22 20 c-13 12 -46 29 -76 38 -51 17 -56 17 -119 -1 -37 -10 -99 -21
-138 -25 -55 -5 -78 -12 -107 -34 -21 -16 -45 -26 -59 -24 -31 4 -30 32 2 36
14 2 31 9 39 15 11 10 1 14 -50 19 -35 4 -86 10 -114 14 -28 4 -79 1 -117 -6
-61 -12 -68 -16 -68 -37 0 -20 -5 -23 -35 -23 -22 0 -37 6 -44 17 -5 10 -13
14 -17 10 -5 -4 -2 -17 5 -29 9 -14 9 -24 2 -31 -7 -7 -14 -2 -22 17 -8 18
-19 26 -29 23 -22 -6 -50 10 -50 28 0 19 2 19 -44 -4 -24 -13 -44 -17 -55 -12
-54 28 -72 33 -94 27 -16 -4 -29 -1 -37 9 -7 8 -17 12 -22 9 -5 -3 -2 -14 8
-25 29 -32 8 -33 -39 -2 -54 37 -116 47 -269 46 -105 -1 -121 -4 -150 -24 -18
-13 -44 -22 -60 -21 -22 2 -28 -2 -28 -18 0 -16 -7 -20 -32 -21 -18 0 -27 -3
-20 -6 9 -4 8 -12 -5 -33 -13 -22 -20 -27 -30 -18 -7 6 -13 21 -13 34 0 36
-41 56 -126 62 -75 5 -181 -10 -222 -30 -18 -10 -26 -8 -45 10 -32 30 -71 42
-140 42 -34 0 -82 6 -107 14 -26 8 -53 10 -65 5 -11 -4 -51 -8 -88 -8 -38 -1
-78 -6 -90 -13 -12 -7 -38 -12 -57 -12 -33 -1 -35 -3 -32 -30 2 -17 0 -26 -6
-22 -5 3 -12 -1 -16 -9 -3 -8 -15 -15 -26 -15 -11 0 -29 -5 -39 -12 -25 -15
-53 5 -50 36 4 59 -9 61 -45 6 -19 -30 -33 -40 -52 -40 -24 0 -26 3 -20 31 l6
32 -37 -7 c-21 -4 -54 -10 -73 -13 -19 -3 -43 -9 -52 -14 -34 -18 -68 -9 -109
29 -40 36 -45 37 -114 37 -56 0 -78 -4 -92 -18 -15 -12 -28 -15 -52 -11 -22 5
-36 3 -41 -6 -4 -7 -15 -10 -24 -7 -19 8 -32 5 -28 -5 1 -5 -4 -8 -12 -8 -9 0
-16 12 -18 33 -2 27 -8 33 -30 35 -22 3 -28 -1 -28 -15 0 -26 -19 -43 -47 -43
-23 0 -34 -20 -10 -20 6 0 3 -7 -8 -16 -11 -8 -30 -24 -43 -35 -30 -26 -42
-21 -56 21 -11 32 -36 54 -101 84 -28 13 -283 20 -566 16 -48 0 -105 7 -151
19 -60 15 -84 17 -121 9 -45 -9 -52 -16 -48 -47 2 -7 -4 -11 -11 -9 -7 3 -13
14 -12 26 0 19 -3 21 -45 15 -25 -3 -50 -12 -54 -20 -4 -7 -17 -13 -28 -13
-11 0 -28 -7 -37 -16 -15 -16 -17 -15 -27 10 l-11 27 -23 -20 c-22 -19 -25
-19 -53 -5 -47 24 -171 31 -202 10 -14 -9 -32 -16 -40 -16 -8 0 -19 -8 -25
-17 -9 -17 -10 -17 -28 0 -27 24 -38 8 -12 -19 l20 -22 -30 -4 c-26 -4 -31 -1
-31 17 0 31 -28 49 -115 74 -76 22 -87 22 -215 12 -74 -6 -143 -11 -153 -11
-9 -1 -46 10 -81 24 -36 14 -84 26 -107 26 -52 0 -120 -31 -134 -62 -6 -13
-17 -21 -25 -20 -8 2 -45 6 -83 8 -54 4 -75 0 -108 -16 -22 -12 -49 -18 -59
-15 -12 4 -27 -2 -39 -14 -27 -27 -32 -27 -56 9 -22 33 -29 36 -95 45 -77 11
-89 13 -99 19 -5 4 -12 2 -16 -4 -3 -6 4 -14 16 -19 21 -7 20 -9 -14 -15 -49
-9 -68 -3 -143 50 -35 25 -74 44 -89 44 -39 0 -87 -23 -120 -59 -40 -41 -71
-40 -118 4 -45 42 -92 46 -182 15 -67 -23 -95 -45 -95 -72 0 -16 -10 -11 -55
28 -46 39 -64 48 -104 52 -63 6 -114 -12 -146 -50 l-25 -30 -36 28 c-20 16
-47 38 -60 48 -51 42 -184 20 -261 -42 -30 -24 -48 -32 -63 -27 -15 5 -22 1
-30 -19 -11 -31 -17 -32 -44 -8 -13 12 -50 23 -95 30 -77 11 -110 5 -143 -25
-16 -14 -18 -14 -18 -1 0 9 -7 21 -15 28 -25 21 -17 31 20 24 28 -5 35 -3 35
10 0 19 -12 25 -60 28 -24 2 -34 -1 -32 -9 3 -16 3 -16 -91 4 -75 16 -80 16
-113 -2 -19 -10 -43 -32 -54 -49 -24 -39 -75 -87 -84 -79 -3 4 -6 13 -6 21 0
8 -8 21 -17 27 -17 12 -17 14 1 34 11 12 17 23 15 25 -2 2 -37 16 -77 30 -84
29 -152 27 -214 -7 -24 -13 -44 -17 -60 -13 -80 24 -87 24 -113 0 -14 -13 -34
-24 -44 -24 -9 0 -22 -5 -28 -11 -8 -8 -17 -8 -31 0 -11 6 -37 11 -57 11 -25
0 -47 8 -67 25 -25 21 -40 25 -97 25 -58 0 -71 3 -89 23 -27 29 -27 37 -2 80
11 18 21 52 22 75 1 29 6 42 16 42 9 0 12 6 8 16 -3 9 -6 19 -6 22 0 4 -4 0
-10 -8 -8 -12 -10 -12 -16 3 -4 11 1 25 12 38 16 18 17 21 1 54 -12 26 -23 35
-41 35 -13 0 -29 6 -35 14 -9 11 -5 20 19 45 18 17 38 31 46 31 22 0 17 37 -6
43 -26 7 -26 37 0 37 27 0 36 40 16 78 -9 17 -20 32 -26 34 -7 2 5 20 24 40
29 30 36 45 36 76 0 22 7 59 15 82 18 51 12 93 -20 154 l-22 42 24 29 c31 40
47 95 39 139 -6 29 -14 39 -40 50 -40 17 -55 36 -28 36 34 0 36 45 6 105 l-27
53 31 32 c40 40 61 102 41 126 -7 9 -23 20 -36 25 -22 8 -61 69 -44 69 15 0
51 65 51 93 0 27 -39 60 -67 55 -19 -4 -26 12 -14 31 7 11 14 9 37 -13 38 -34
47 -33 26 3 -14 25 -15 35 -4 63 6 19 12 58 12 86 0 48 -2 54 -27 64 -16 6
-34 10 -40 9 -7 -1 -13 5 -13 14 0 9 5 13 10 10 6 -3 10 3 10 14 0 11 9 22 19
26 11 3 22 12 24 20 7 16 -14 75 -26 75 -13 0 1 50 24 81 21 30 25 79 8 96 -8
8 -8 21 1 49 12 35 11 38 -14 56 -25 19 -25 21 -10 49 8 16 13 36 12 45 -2 9
13 25 37 38 46 26 55 58 31 108 -20 38 -20 57 -1 82 22 29 18 47 -15 85 -16
18 -27 37 -24 42 8 14 -19 79 -33 79 -19 0 -16 47 4 59 16 8 15 12 -10 31 -21
17 -25 25 -17 38 20 34 40 55 46 49 4 -4 1 -13 -6 -22 -7 -9 -10 -18 -6 -22
12 -12 30 17 31 50 0 24 4 31 17 29 24 -4 32 17 14 37 -10 11 -16 36 -16 69 0
40 -4 52 -15 52 -8 0 -15 -5 -15 -11 0 -5 -4 -7 -10 -4 -5 3 -10 18 -10 33 0
20 -3 23 -12 14 -7 -7 -16 -12 -20 -12 -13 0 -9 28 5 37 8 4 20 42 29 85 13
67 13 75 0 70 -10 -3 -13 0 -10 9 3 8 15 13 27 11 20 -2 22 1 16 29 -5 21 -2
36 9 48 20 22 46 85 46 111 0 20 -41 64 -63 66 -35 3 -36 4 -19 35 13 25 14
32 4 36 -31 11 -65 50 -59 66 8 22 26 22 34 0 7 -23 62 -73 79 -73 8 0 14 7
14 16 0 19 -69 86 -81 78 -5 -3 -9 2 -9 11 0 9 8 19 18 22 23 6 56 67 58 107
1 17 5 42 9 56 8 33 -45 101 -74 93 -13 -3 -27 6 -46 31 -26 34 -27 60 -1 50
7 -3 25 12 40 35 23 33 27 47 22 76 -3 19 -9 51 -12 70 -5 29 -1 41 31 79 33
41 36 50 30 83 -3 21 -8 67 -9 103 -2 66 -28 130 -52 130 -6 0 -16 6 -21 13
-13 16 -4 89 10 80 6 -3 7 -1 3 5 -6 10 17 63 46 104 9 12 9 32 2 78 -8 46 -7
63 2 71 7 6 19 30 28 55 16 47 11 60 -35 84 -32 18 -23 60 22 110 44 49 45 62
8 125 -14 23 -28 35 -43 35 -29 0 -54 28 -62 68 -7 34 -3 38 26 22 13 -7 19
-6 24 5 7 18 4 31 -6 28 -5 -2 -8 4 -8 12 0 16 43 31 60 20 5 -3 7 -11 4 -17
-5 -8 1 -9 17 -5 13 4 28 7 33 7 11 0 -2 88 -18 121 -15 31 -5 63 24 79 16 8
18 14 10 28 -6 9 -19 30 -28 46 -10 16 -23 31 -30 34 -16 5 -16 -45 1 -51 9
-3 9 -7 0 -17 -12 -13 -37 -4 -28 11 4 5 0 9 -7 9 -7 0 -31 9 -52 21 -21 11
-35 16 -32 11 6 -11 -23 -26 -32 -17 -4 3 2 21 13 40 19 36 45 47 45 20 0 -21
17 -19 30 4 18 34 13 71 -10 71 -25 0 -26 17 -1 25 15 4 20 19 26 70 6 57 4
68 -15 94 -15 23 -18 35 -11 48 5 10 12 30 16 46 3 15 11 27 18 27 34 1 63
132 32 144 -8 3 -15 16 -15 28 0 13 -3 18 -8 12 -7 -11 -52 -2 -52 11 0 3 15
19 33 35 25 23 38 28 60 24 49 -10 43 20 -17 80 -62 61 -71 86 -30 78 18 -3
22 -8 15 -15 -20 -20 -11 -24 24 -13 19 6 35 18 36 26 2 25 -1 73 -7 117 -5
35 -3 43 15 52 25 14 27 28 6 51 -8 9 -16 35 -19 59 -2 25 -12 51 -25 65 -13
14 -25 45 -30 77 -9 50 -7 57 20 98 16 25 29 52 29 61 0 9 -19 33 -41 54 -41
36 -41 37 -23 57 15 17 16 24 6 39 -7 11 -12 28 -12 39 0 10 -10 25 -22 34
-20 13 -21 18 -10 36 14 24 7 67 -15 93 -24 27 -12 50 32 63 22 6 45 10 51 8
16 -5 21 13 34 111 13 97 -2 170 -37 172 -38 2 -42 4 -37 19 3 8 14 17 23 20
21 6 68 88 72 126 3 20 -4 33 -28 53 -36 31 -35 51 8 92 34 33 36 48 9 71 -11
10 -20 23 -20 29 0 7 -7 15 -16 18 -12 5 -15 14 -10 39 5 25 -1 44 -29 89 -21
36 -30 60 -24 64 6 4 18 23 26 42 15 36 15 36 -22 68 l-36 33 28 17 c42 27 62
50 83 97 26 56 25 67 -7 92 -24 20 -25 24 -15 55 27 75 8 159 -38 170 -14 3
-26 14 -28 25 -5 32 -36 85 -49 85 -10 0 -10 6 -1 25 9 20 9 34 -1 61 -11 30
-10 40 4 70 9 19 22 34 30 34 25 0 17 19 -26 57 -68 62 -70 82 -12 144 20 21
24 35 21 70 l-3 44 -77 0 c-71 0 -78 -2 -90 -24z m72 -1121 c0 -5 -7 -10 -15
-10 -8 0 -15 5 -15 10 0 6 7 10 15 10 8 0 15 -4 15 -10z m-10 -996 c0 -16 -28
-18 -50 -4 -13 9 -12 12 4 25 21 16 46 5 46 -21z m30 26 c0 -5 -5 -10 -11 -10
-5 0 -7 5 -4 10 3 6 8 10 11 10 2 0 4 -4 4 -10z m-4 -175 c18 -15 18 -15 -8
-9 -18 4 -28 2 -28 -5 0 -6 -7 -11 -15 -11 -8 0 -15 7 -15 15 0 9 6 12 15 9 8
-4 15 -1 15 5 0 15 13 14 36 -4z m-36 -536 c0 -6 -4 -7 -10 -4 -5 3 -10 11
-10 16 0 6 5 7 10 4 6 -3 10 -11 10 -16z m220 -104 c0 -8 -4 -15 -10 -15 -5 0
-10 7 -10 15 0 8 5 15 10 15 6 0 10 -7 10 -15z m-250 -315 c0 -5 -4 -10 -10
-10 -5 0 -10 5 -10 10 0 6 5 10 10 10 6 0 10 -4 10 -10z m150 -344 c0 -11 -19
-15 -25 -6 -3 5 1 10 9 10 9 0 16 -2 16 -4z m-12 -232 c-3 -14 -5 -12 -10 9
-3 19 -2 25 4 19 6 -6 8 -18 6 -28z m112 -220 c0 -22 -2 -25 -15 -14 -8 7 -15
19 -15 26 0 8 7 14 15 14 10 0 15 -10 15 -26z m-221 -757 c21 -26 -23 -49 -47
-25 -9 9 -7 14 6 24 22 17 27 17 41 1z m191 -467 c0 -5 -9 -14 -20 -20 -22
-12 -27 -1 -8 18 14 14 28 16 28 2z m12854 -1096 c3 -9 6 -17 6 -19 0 -6 -73
-46 -76 -42 -2 2 7 16 21 31 14 15 25 31 25 37 0 15 17 10 24 -7z m-89 -23 c7
-12 -12 -24 -25 -16 -11 7 -4 25 10 25 5 0 11 -4 15 -9z m140 -31 c3 -5 1 -10
-4 -10 -6 0 -11 5 -11 10 0 6 2 10 4 10 3 0 8 -4 11 -10z m-60 -180 c3 -5 1
-10 -4 -10 -6 0 -11 5 -11 10 0 6 2 10 4 10 3 0 8 -4 11 -10z m-12898 -206
c-3 -3 -12 -4 -19 -1 -8 3 -5 6 6 6 11 1 17 -2 13 -5z m31 -49 c-3 -3 -9 2
-12 12 -6 14 -5 15 5 6 7 -7 10 -15 7 -18z m12752 -45 c0 -5 -4 -10 -10 -10
-5 0 -10 5 -10 10 0 6 5 10 10 10 6 0 10 -4 10 -10z m36 -27 c-10 -10 -19 5
-10 18 6 11 8 11 12 0 2 -7 1 -15 -2 -18z m-12936 -833 c0 -5 -5 -10 -11 -10
-5 0 -7 5 -4 10 3 6 8 10 11 10 2 0 4 -4 4 -10z m12910 -900 c0 -13 -11 -13
-30 0 -12 8 -11 10 8 10 12 0 22 -4 22 -10z m-45 -130 c3 -5 -1 -10 -9 -10 -9
0 -16 5 -16 10 0 6 4 10 9 10 6 0 13 -4 16 -10z m5 -562 c0 -13 -23 -5 -28 10
-2 7 2 10 12 6 9 -3 16 -11 16 -16z m-1520 -858 c0 -5 -4 -10 -10 -10 -5 0
-10 5 -10 10 0 6 5 10 10 10 6 0 10 -4 10 -10z m-8302 -27 c-5 -25 -28 -28
-28 -4 0 12 6 21 16 21 9 0 14 -7 12 -17z m1187 -14 c0 -15 -7 -25 -17 -27
-13 -3 -18 3 -18 21 0 13 3 27 7 31 13 12 28 -1 28 -25z m6645 16 c0 -8 -7
-15 -15 -15 -8 0 -15 7 -15 15 0 8 7 15 15 15 8 0 15 -7 15 -15z m-8158 -27
c-9 -9 -12 -7 -12 12 0 19 3 21 12 12 9 -9 9 -15 0 -24z m928 18 c0 -3 -4 -8
-10 -11 -5 -3 -10 -1 -10 4 0 6 5 11 10 11 6 0 10 -2 10 -4z m-2136 -27 c-8
-14 -24 -10 -24 6 0 9 6 12 15 9 8 -4 12 -10 9 -15z m3447 -2 c-13 -13 -26 -3
-16 12 3 6 11 8 17 5 6 -4 6 -10 -1 -17z m2769 14 c0 -6 -4 -13 -10 -16 -5 -3
-10 1 -10 9 0 9 5 16 10 16 6 0 10 -4 10 -9z m2230 1 c0 -13 -12 -22 -22 -16
-10 6 -1 24 13 24 5 0 9 -4 9 -8z m420 -8 c0 -17 -22 -14 -28 4 -2 7 3 12 12
12 9 0 16 -7 16 -16z m-5885 -4 c3 -5 1 -10 -4 -10 -6 0 -11 5 -11 10 0 6 2
10 4 10 3 0 8 -4 11 -10z m6835 -4 c0 -3 -4 -8 -10 -11 -5 -3 -10 -1 -10 4 0
6 5 11 10 11 6 0 10 -2 10 -4z m55 -8 c34 -15 34 -42 0 -34 -20 5 -25 3 -25
-14 0 -11 -5 -20 -11 -20 -7 0 -9 9 -5 23 3 12 6 30 6 40 0 20 1 20 35 5z
m-8634 -54 c9 -11 10 -20 2 -32 -15 -24 -27 -17 -29 18 -2 33 7 38 27 14z
m-671 -3 c0 -6 -4 -13 -10 -16 -5 -3 -10 1 -10 9 0 9 5 16 10 16 6 0 10 -4 10
-9z m-1780 -16 c0 -8 -7 -15 -16 -15 -14 0 -14 3 -4 15 7 8 14 15 16 15 2 0 4
-7 4 -15z m1836 -7 c7 -10 -20 -38 -38 -38 -12 0 -10 24 4 38 15 15 25 15 34
0z m-583 -10 c21 -11 21 -11 2 -19 -20 -8 -20 -8 0 -8 11 -1 27 -14 37 -31 21
-38 53 -50 128 -50 33 0 71 -5 84 -12 22 -9 29 -8 47 8 20 18 21 18 37 -2 9
-12 25 -24 35 -27 25 -9 10 -29 -15 -21 -19 6 -20 3 -14 -31 l7 -37 -37 6
c-33 7 -36 6 -29 -11 20 -47 17 -84 -14 -149 -17 -36 -31 -78 -31 -94 0 -46
-10 -60 -40 -60 -16 0 -32 5 -35 10 -12 20 -45 10 -51 -15 -3 -14 -10 -25 -16
-25 -5 0 -7 4 -4 9 8 13 -36 22 -50 11 -7 -7 -19 -4 -35 8 -56 42 -93 54 -149
50 -30 -3 -69 -11 -87 -18 -28 -12 -37 -11 -75 5 -64 28 -86 47 -92 78 -3 16
-15 40 -26 54 -11 14 -20 32 -20 39 0 21 30 17 30 -3 1 -16 50 -63 50 -48 0
17 -56 108 -74 120 -29 21 -29 94 0 127 11 13 26 36 33 52 l12 29 27 -25 c42
-40 87 -58 139 -58 61 0 70 6 78 53 6 32 11 37 35 37 41 0 60 10 60 29 0 32
17 38 53 19z m1850 -3 c-3 -9 -8 -14 -10 -11 -3 3 -2 9 2 15 9 16 15 13 8 -4z
m-596 -32 c-3 -3 -10 -2 -16 2 -7 4 -7 10 2 20 10 11 13 11 15 -2 2 -8 1 -17
-1 -20z m-2477 7 c0 -5 -10 -10 -22 -10 -19 0 -20 2 -8 10 19 13 30 13 30 0z
m710 -10 c0 -5 -5 -10 -11 -10 -5 0 -7 5 -4 10 3 6 8 10 11 10 2 0 4 -4 4 -10z
m3014 4 c20 -8 21 -34 2 -34 -17 0 -38 24 -29 33 8 8 8 8 27 1z m7806 -28 c0
-13 7 -27 16 -30 19 -7 9 -26 -14 -26 -22 0 -42 42 -30 64 13 24 28 19 28 -8z
m-8400 4 c0 -5 -5 -10 -11 -10 -5 0 -7 5 -4 10 3 6 8 10 11 10 2 0 4 -4 4 -10z
m9101 -13 c-13 -13 -26 -3 -16 12 3 6 11 8 17 5 6 -4 6 -10 -1 -17z m-10503 2
c-2 -6 -8 -10 -13 -10 -5 0 -11 4 -13 10 -2 6 4 11 13 11 9 0 15 -5 13 -11z
m7712 -9 c0 -5 -2 -10 -4 -10 -3 0 -8 5 -11 10 -3 6 -1 10 4 10 6 0 11 -4 11
-10z m1410 -25 c0 -8 -4 -15 -9 -15 -13 0 -22 16 -14 24 11 11 23 6 23 -9z
m-523 -10 c10 -27 -6 -30 -29 -7 l-22 22 22 0 c12 0 25 -7 29 -15z m-1107 -11
c0 -17 -22 -14 -28 4 -2 7 3 12 12 12 9 0 16 -7 16 -16z m-5560 -44 c0 -11 -4
-20 -10 -20 -5 0 -10 9 -10 20 0 11 5 20 10 20 6 0 10 -9 10 -20z m7736 -217
c-10 -10 -19 5 -10 18 6 11 8 11 12 0 2 -7 1 -15 -2 -18z m-10526 -115 c0 -5
-7 -8 -15 -8 -8 0 -15 2 -15 4 0 2 -3 12 -6 21 -6 15 -4 15 15 4 11 -8 21 -17
21 -21z m40 -108 c0 -5 -5 -10 -11 -10 -5 0 -7 5 -4 10 3 6 8 10 11 10 2 0 4
-4 4 -10z m2400 -31 c0 -9 -70 -17 -75 -8 -3 3 -2 9 1 12 8 7 74 4 74 -4z
m-2420 -46 c0 -2 -9 -3 -20 -3 -13 0 -20 7 -20 20 0 19 1 19 20 3 11 -10 20
-19 20 -20z m2457 22 c8 -22 -6 -33 -17 -15 -13 20 -12 30 0 30 6 0 13 -7 17
-15z m-2367 -5 c0 -5 -4 -10 -10 -10 -5 0 -10 5 -10 10 0 6 5 10 10 10 6 0 10
-4 10 -10z m154 -96 c8 -22 9 -21 -19 -26 -14 -3 -25 -1 -25 3 0 5 5 9 10 9 6
0 10 7 10 15 0 20 16 19 24 -1z"/>
<path d="M2612 11330 c0 -14 2 -19 5 -12 2 6 2 18 0 25 -3 6 -5 1 -5 -13z"/>
<path d="M8523 10984 c-23 -19 -44 -26 -77 -26 -34 -1 -51 -7 -67 -25 -22 -23
-49 -31 -49 -14 0 5 -28 9 -62 9 -71 -1 -98 -16 -98 -56 0 -21 -2 -23 -16 -11
-14 11 -19 9 -34 -11 -15 -20 -22 -22 -31 -13 -20 20 -38 80 -26 92 12 12 0
31 -20 31 -8 0 -31 -7 -50 -17 l-35 -16 29 -12 c25 -11 26 -13 9 -20 -11 -5
-27 -3 -38 4 -16 10 -24 8 -51 -15 -18 -15 -31 -33 -29 -41 5 -21 -12 -16 -53
17 -21 17 -41 30 -44 30 -3 0 -32 4 -63 9 -45 8 -64 7 -88 -5 -36 -19 -39 -28
-5 -22 21 4 23 2 15 -13 -6 -10 -8 -24 -7 -31 2 -7 2 -10 0 -7 -2 4 -17 2 -32
-4 -19 -7 -27 -16 -24 -28 6 -20 -12 -33 -29 -22 -7 4 -24 8 -38 9 -14 0 -33
4 -42 8 -13 6 -20 3 -25 -10 -4 -11 -15 -28 -26 -39 -17 -19 -18 -19 -11 -1 7
17 4 18 -32 12 -21 -5 -45 -12 -51 -18 -7 -6 -23 -8 -35 -5 -11 3 -37 -1 -57
-10 -20 -8 -51 -17 -70 -19 -28 -3 -32 -1 -28 16 8 30 -19 32 -53 4 -35 -30
-38 -44 -10 -44 11 0 20 -4 20 -10 0 -18 -40 -31 -76 -24 -32 6 -39 3 -59 -22
-21 -27 -28 -29 -88 -29 -56 0 -69 -4 -92 -25 -20 -18 -24 -30 -20 -51 6 -26
6 -27 -40 -22 -39 5 -48 2 -69 -20 -16 -18 -20 -29 -14 -41 6 -11 5 -16 -4
-16 -21 1 -51 28 -43 39 9 15 -18 14 -33 -1 -17 -17 -15 -31 3 -24 8 3 15 1
15 -4 0 -5 -10 -11 -22 -15 -51 -14 -68 -28 -68 -57 0 -21 -5 -28 -19 -28 -10
0 -24 -7 -31 -15 -19 -23 -43 -19 -35 5 5 17 2 20 -25 20 -44 0 -67 -15 -79
-52 -10 -31 -13 -33 -53 -30 -54 4 -108 -27 -108 -60 0 -38 -14 -49 -54 -46
-40 2 -70 -21 -60 -47 4 -8 -8 -16 -33 -22 -37 -9 -38 -9 -41 -61 -2 -43 -8
-55 -28 -68 -13 -9 -33 -14 -45 -11 -12 3 -22 0 -26 -9 -3 -8 -10 -14 -17 -14
-15 0 -47 -37 -45 -53 3 -26 -2 -37 -16 -37 -8 0 -15 5 -15 10 0 20 -20 9 -59
-33 -28 -30 -54 -46 -88 -56 -76 -20 -95 -30 -135 -64 -40 -36 -53 -91 -29
-121 15 -18 8 -21 -20 -6 -10 6 -19 17 -19 25 0 23 -27 18 -45 -7 -14 -21 -14
-23 1 -28 15 -5 15 -7 0 -19 -9 -7 -16 -24 -16 -37 0 -18 -6 -24 -21 -24 -27
0 -79 -55 -79 -84 0 -17 -12 -28 -51 -47 -62 -29 -79 -52 -88 -121 -6 -52 -7
-53 -43 -59 -54 -9 -80 -35 -76 -79 2 -29 0 -34 -14 -32 -10 2 -18 -1 -18 -6
0 -5 -18 -17 -39 -28 -22 -10 -42 -28 -45 -39 -7 -25 2 -34 14 -15 7 11 10 1
10 -32 0 -26 -4 -50 -10 -53 -5 -3 -10 -1 -10 6 0 10 -3 10 -12 1 -7 -7 -24
-12 -40 -12 -18 0 -33 -8 -44 -25 -20 -30 -28 -133 -13 -152 9 -10 8 -13 -4
-13 -22 0 -31 -18 -17 -35 10 -12 7 -17 -15 -25 -14 -5 -30 -10 -34 -10 -19 0
-61 -51 -61 -75 0 -18 -7 -28 -25 -35 -14 -5 -30 -20 -35 -32 -6 -13 -22 -38
-35 -57 -32 -43 -32 -84 -3 -104 l23 -15 -26 -10 c-14 -6 -30 -23 -36 -39 -25
-70 -31 -100 -27 -128 4 -23 3 -26 -5 -15 -9 12 -18 7 -56 -33 -59 -63 -67
-93 -32 -122 36 -28 34 -58 -5 -87 -18 -13 -36 -24 -40 -24 -5 -1 -10 -2 -13
-3 -3 0 -1 -10 5 -21 6 -11 16 -17 25 -14 8 4 15 3 15 -2 0 -11 -25 -37 -105
-110 -27 -25 -35 -40 -35 -67 0 -23 6 -37 16 -41 16 -6 16 -8 0 -24 -21 -24
-21 -76 1 -97 13 -14 14 -20 5 -34 -7 -9 -17 -28 -23 -43 -6 -16 -16 -28 -22
-29 -7 -1 -1 -5 13 -9 24 -8 23 -8 -7 -9 -20 -1 -33 4 -33 12 -1 20 -30 -25
-30 -46 0 -12 6 -17 18 -15 9 1 23 -1 30 -5 6 -5 12 -6 12 -3 0 3 9 -2 20 -11
25 -22 25 -33 1 -33 -23 0 -81 -29 -98 -50 -19 -22 -17 -110 2 -110 21 0 19
-24 -5 -45 -20 -18 -28 -55 -11 -55 4 0 3 -21 -2 -46 -9 -40 -9 -48 6 -59 23
-16 22 -24 -8 -55 -20 -21 -24 -33 -19 -58 4 -18 11 -32 16 -32 6 0 5 -7 -2
-15 -7 -8 -19 -15 -27 -15 -17 0 -9 -36 15 -63 14 -15 14 -24 4 -63 -13 -48
-8 -133 10 -170 7 -16 5 -29 -11 -55 -27 -44 -27 -85 0 -99 26 -14 19 -36 -9
-32 -16 2 -22 -2 -22 -17 0 -14 -5 -19 -15 -15 -20 8 -20 -26 1 -74 21 -49 34
-103 23 -96 -5 3 -9 -6 -9 -20 0 -14 4 -26 9 -26 15 0 6 -82 -13 -118 -16 -31
-16 -35 -1 -59 11 -16 20 -21 24 -15 4 6 15 11 26 10 11 -1 30 2 43 6 30 10
28 -8 -3 -22 -31 -14 -32 -43 -3 -82 l21 -29 -22 -18 c-23 -19 -33 -89 -15
-101 5 -4 10 -29 11 -55 2 -51 20 -81 55 -93 36 -11 38 -44 6 -89 -27 -36 -29
-45 -24 -92 7 -62 24 -103 42 -103 7 0 18 -8 23 -17 8 -13 10 -14 11 -4 0 8 3
12 6 9 3 -4 0 -16 -6 -28 -9 -16 -9 -25 -1 -33 6 -6 11 -23 11 -38 0 -16 11
-40 25 -55 27 -29 31 -40 14 -46 -15 -5 29 -78 47 -78 20 0 17 -14 -6 -35 -20
-18 -28 -88 -12 -110 10 -14 49 -35 66 -35 25 0 28 -18 11 -76 -13 -44 -14
-62 -5 -90 10 -29 16 -34 43 -34 32 1 69 21 67 37 0 4 8 9 20 11 26 4 25 -4
-5 -44 -32 -41 -31 -58 1 -81 23 -17 25 -23 15 -41 -6 -11 -11 -37 -11 -56 0
-32 4 -38 39 -53 38 -16 38 -17 22 -44 -9 -16 -21 -25 -29 -21 -12 4 -12 1 -3
-16 7 -12 19 -22 27 -22 9 0 12 5 8 11 -7 13 13 29 36 29 21 0 51 -59 49 -95
-2 -17 1 -40 5 -52 4 -14 3 -23 -3 -23 -15 0 -2 -88 18 -122 8 -16 23 -28 33
-28 13 0 18 -8 18 -31 0 -42 28 -99 56 -111 18 -8 29 -7 48 6 31 20 46 20 46
1 0 -7 7 -18 16 -23 11 -6 17 -25 19 -53 1 -24 5 -54 10 -66 6 -18 4 -23 -9
-23 -23 0 -20 -15 9 -34 30 -20 35 -20 35 0 0 9 6 14 13 11 8 -2 11 -21 9 -60
-4 -55 -4 -56 37 -82 l40 -27 31 22 30 22 -2 -56 c-2 -49 1 -58 22 -74 39 -27
79 -42 85 -31 4 5 15 9 25 9 14 0 19 -6 18 -23 -3 -30 32 -76 58 -77 40 0 59
-24 56 -74 -2 -56 26 -93 80 -105 31 -7 37 -6 41 10 7 25 27 24 27 0 0 -11
-11 -28 -25 -39 -14 -11 -25 -24 -25 -30 0 -15 32 -24 40 -11 11 16 22 -5 14
-26 -9 -23 32 -64 57 -58 13 4 19 0 19 -11 0 -9 -5 -16 -11 -16 -8 0 -8 -5 1
-15 7 -8 23 -15 37 -15 21 0 22 3 13 20 -10 18 -8 20 29 20 34 0 41 -4 55 -34
9 -19 16 -52 16 -74 0 -57 37 -100 79 -94 19 3 31 0 31 -7 0 -7 9 -9 24 -5 27
6 51 -22 40 -50 -3 -9 5 -27 20 -43 14 -15 26 -31 26 -35 0 -4 9 -12 20 -18
27 -15 88 13 92 43 5 37 28 32 28 -7 0 -44 39 -77 65 -56 8 7 15 19 15 27 0 7
7 16 15 19 19 8 19 28 -2 84 -24 67 -34 76 -49 49 -12 -23 -12 -23 -27 12 -20
48 -52 77 -100 90 -24 6 -41 18 -46 32 -11 28 -49 63 -81 75 -14 5 -52 8 -86
7 l-61 -2 9 39 c13 61 -16 118 -73 143 -24 10 -57 29 -72 42 -16 13 -34 23
-42 23 -7 0 -18 7 -25 16 -15 17 -87 54 -107 54 -7 0 -20 17 -28 37 -9 21 -32
52 -51 69 -24 22 -32 36 -28 48 5 12 0 19 -15 23 -24 6 -29 23 -6 23 8 0 15 4
15 9 0 14 -23 27 -72 41 -27 7 -48 18 -48 26 0 7 -7 14 -15 16 -13 3 -13 6 0
32 8 15 15 36 15 45 0 24 -47 89 -70 96 -11 3 -28 26 -39 50 -10 24 -32 51
-48 61 -15 10 -40 30 -54 44 -45 43 -56 49 -78 43 -11 -3 -21 -2 -21 2 0 12
33 34 53 35 21 0 22 20 1 46 -11 13 -17 15 -20 7 -7 -15 -50 -17 -59 -3 -3 6
-1 10 4 10 12 0 15 58 5 84 -3 9 -14 16 -23 16 -9 0 -24 18 -35 40 -23 48 -45
69 -82 79 -22 5 -30 14 -32 35 -2 16 1 33 7 39 35 35 -12 125 -73 142 -48 14
-73 54 -54 85 11 17 9 23 -15 46 -27 25 -32 52 -8 46 16 -3 14 62 -3 103 -8
18 -27 41 -43 51 -15 10 -30 19 -32 21 -3 2 3 9 12 16 16 11 16 14 -4 46 -11
18 -28 35 -38 38 -16 4 -18 12 -14 44 5 31 0 47 -20 79 -22 32 -40 83 -68 190
-2 9 2 14 10 12 19 -4 9 55 -19 112 -11 23 -20 51 -20 62 0 11 -16 39 -36 62
-19 23 -33 46 -30 51 3 5 -1 21 -9 37 -12 24 -12 29 2 39 21 16 26 64 7 82 -7
8 -14 22 -14 32 0 9 -4 21 -10 27 -6 6 -5 25 2 53 8 33 8 52 -1 77 -10 28 -9
38 9 71 26 48 25 59 -5 119 -25 48 -26 92 -4 120 5 6 4 28 -3 50 -6 23 -8 72
-4 122 6 87 1 107 -37 150 -15 16 -21 33 -18 57 1 18 -2 43 -8 54 -9 17 -7 24
15 45 22 20 28 36 33 93 4 37 12 77 18 88 7 12 9 52 6 111 -5 84 -4 94 17 122
15 21 24 48 26 84 1 29 8 72 15 95 12 39 11 44 -9 66 -27 29 -28 44 -2 52 48
15 67 121 30 168 -11 14 -20 37 -20 50 0 22 4 25 28 23 15 -2 28 -10 30 -20 9
-42 32 0 32 57 0 15 7 42 16 60 11 20 13 32 6 35 -7 2 -9 21 -5 53 5 42 2 55
-16 80 -25 33 -22 70 3 49 31 -25 106 38 106 90 0 14 7 34 15 44 10 13 12 23
5 32 -8 8 0 23 28 52 58 60 76 104 69 170 -5 45 -3 58 11 69 15 13 14 14 -11
8 -21 -4 -28 -2 -25 7 3 7 18 13 35 14 37 0 69 23 82 57 6 15 15 27 21 27 5 0
10 23 10 51 0 44 4 55 30 79 25 23 30 36 31 77 1 26 1 54 0 61 -3 17 23 42 36
34 6 -4 12 -16 15 -27 3 -18 6 -17 23 10 10 17 34 47 52 68 22 24 33 47 33 67
0 19 5 30 14 30 22 0 95 98 102 136 3 19 19 48 35 64 16 15 29 39 29 51 0 41
32 110 49 108 23 -3 71 18 75 33 3 7 7 24 10 38 3 14 21 42 41 62 20 21 31 39
25 43 -5 3 -10 17 -10 29 0 19 4 22 25 18 14 -2 25 -9 26 -16 0 -6 4 -1 9 12
6 13 18 22 31 22 43 0 90 32 117 80 14 26 39 54 55 63 23 14 27 21 21 39 -11
36 -10 50 5 56 10 3 12 0 8 -12 -8 -20 7 -21 23 0 8 8 27 21 44 29 48 22 60
35 94 109 25 53 35 67 44 58 9 -9 16 -8 29 4 14 13 15 22 7 51 -5 19 -7 38 -3
41 10 11 35 -29 35 -56 0 -19 4 -23 17 -18 35 14 101 71 110 97 8 20 17 26 41
27 40 1 88 26 108 57 9 13 22 21 29 19 25 -10 50 19 53 61 4 46 18 67 32 46 6
-11 12 -12 22 -4 7 6 42 13 77 17 80 8 104 23 130 81 l20 45 56 0 c54 0 59 2
109 50 49 47 56 50 104 50 51 0 92 22 92 50 0 6 6 10 14 10 7 0 27 14 45 30
30 30 58 32 47 5 -8 -21 2 -23 42 -9 20 7 59 13 85 14 26 0 61 7 77 15 37 19
80 81 75 107 -4 17 -1 19 18 13 12 -4 32 -6 44 -6 13 0 38 -8 55 -19 18 -11
46 -20 61 -20 28 0 101 32 111 49 3 5 32 7 64 4 47 -4 66 -1 100 16 46 23 122
87 122 103 0 5 7 20 16 34 l17 24 14 -27 c7 -14 12 -32 9 -39 -3 -7 5 -12 17
-13 12 0 44 -4 70 -7 54 -7 100 8 122 39 7 10 11 25 9 32 -3 7 7 22 22 34 25
20 27 20 40 4 7 -10 14 -25 14 -32 0 -12 3 -12 12 -3 13 13 68 16 106 6 26 -7
29 -29 5 -43 -14 -8 -6 -10 34 -11 41 0 58 5 81 25 17 14 35 25 42 25 7 0 25
-11 42 -25 36 -31 60 -31 151 -3 45 13 72 17 74 11 3 -7 18 -7 46 2 37 11 44
10 69 -8 33 -24 102 -20 145 10 45 32 71 35 84 10 6 -12 27 -39 47 -59 32 -34
41 -38 87 -38 79 0 119 15 132 50 15 40 41 49 64 21 11 -14 20 -17 24 -11 6
10 42 -22 70 -64 6 -8 25 -17 43 -21 32 -7 33 -6 26 20 -6 25 -5 27 16 20 19
-6 22 -4 17 9 -5 12 1 20 20 27 29 11 28 12 37 -19 5 -15 3 -24 -8 -28 -9 -3
-16 -10 -16 -15 0 -12 27 -11 67 3 31 11 35 10 71 -24 53 -52 79 -60 122 -37
19 10 42 21 50 24 8 4 23 11 32 16 26 13 28 12 28 -17 0 -14 5 -35 11 -46 8
-14 8 -23 0 -31 -17 -17 -13 -30 8 -24 13 3 32 -6 52 -24 30 -26 111 -59 146
-59 8 0 29 -16 48 -35 23 -22 48 -36 72 -40 21 -3 49 -12 63 -20 64 -37 108
-55 138 -55 20 0 35 -6 38 -15 9 -22 86 -65 117 -65 25 0 82 -22 152 -57 28
-15 48 -21 130 -39 17 -3 35 -13 41 -20 10 -12 12 -11 17 7 9 34 43 21 39 -15
-7 -58 51 -133 109 -142 24 -4 49 -18 70 -40 31 -32 36 -34 81 -28 44 6 48 5
48 -15 0 -12 -7 -24 -15 -27 -13 -5 -12 -10 7 -29 13 -12 31 -35 42 -50 20
-29 71 -55 109 -55 19 0 26 -8 36 -40 8 -26 26 -51 52 -72 22 -17 42 -42 45
-55 8 -30 62 -77 117 -101 41 -18 76 -54 90 -94 16 -44 90 -62 185 -45 45 8
60 -7 20 -22 -21 -8 -21 -8 -1 -13 12 -3 32 -3 46 -1 21 4 26 12 31 50 9 66
-1 93 -36 100 -16 3 -35 14 -41 24 -7 11 -19 19 -28 19 -18 0 -33 37 -18 46
15 9 10 44 -6 50 -8 4 -15 15 -15 26 0 11 -11 33 -25 50 -14 16 -25 37 -25 47
0 9 -13 27 -30 39 -32 24 -50 28 -50 11 0 -15 -47 -59 -62 -59 -7 0 -21 9 -33
20 -19 18 -21 25 -11 56 8 26 16 34 29 30 27 -7 21 29 -8 48 -13 9 -34 16 -45
16 -17 0 -19 -3 -10 -19 17 -32 -11 -31 -52 2 -23 18 -43 27 -53 23 -12 -4
-19 0 -22 14 -3 11 -10 20 -17 20 -6 0 -11 19 -12 45 0 25 3 45 8 45 4 0 8 7
8 17 0 14 -11 15 -95 10 -95 -6 -96 -6 -107 18 -6 14 -15 25 -20 25 -4 0 -8 7
-8 16 0 14 3 14 15 4 12 -10 15 -9 15 4 0 9 -6 19 -14 22 -8 3 -12 13 -9 25 5
16 0 19 -31 19 -29 0 -39 5 -46 23 -5 12 -9 16 -9 10 -1 -18 -20 -16 -28 2 -3
9 2 22 12 29 24 17 11 36 -26 36 -19 0 -37 10 -56 30 -31 36 -33 36 -99 9 -51
-21 -52 -21 -78 -3 -36 25 -71 93 -57 107 18 18 12 27 -18 27 -16 0 -36 7 -44
15 -12 11 -17 12 -20 2 -4 -9 -7 -9 -18 1 -12 11 -12 14 0 22 22 13 -3 38 -45
46 -37 7 -41 13 -22 32 18 18 -2 29 -52 26 -31 -1 -42 3 -53 20 -18 27 -110
76 -140 75 -12 0 -16 -3 -9 -6 6 -2 12 -11 12 -19 0 -16 -36 -19 -45 -4 -9 15
-25 12 -19 -4 3 -8 14 -16 25 -19 21 -6 27 -37 7 -37 -22 0 -36 14 -43 41 -4
16 -13 26 -23 25 -9 0 -16 4 -15 10 1 7 -6 19 -16 28 -16 15 -17 14 -13 -14 5
-38 -9 -38 -31 -1 -15 25 -15 32 -4 43 21 19 0 34 -57 42 -47 7 -47 7 -36 -15
11 -20 11 -21 -11 -15 -13 4 -31 8 -38 10 -21 4 -26 26 -7 26 9 0 16 4 16 8 0
17 -25 32 -54 32 -18 0 -40 10 -56 25 l-27 26 -49 -19 c-27 -11 -49 -26 -50
-33 -2 -33 -5 -39 -24 -49 -16 -8 -23 -7 -37 10 -10 12 -30 20 -48 20 -23 0
-34 7 -48 32 -14 25 -15 33 -5 40 8 5 -5 6 -33 3 -41 -6 -47 -4 -62 18 -28 42
-105 87 -152 87 -34 0 -44 -4 -55 -25 -14 -26 -116 -83 -127 -71 -3 3 0 6 8 6
11 1 10 3 -2 10 -10 6 -22 32 -29 58 -10 44 -16 52 -56 71 -50 25 -65 23 -112
-18 -21 -19 -39 -27 -52 -24 -16 4 -20 0 -20 -17 0 -14 -5 -20 -12 -17 -7 2
-22 1 -33 -3 -14 -5 -27 0 -45 20 -21 22 -32 26 -59 22 -18 -2 -35 -11 -38
-18 -8 -21 -25 -17 -60 16 -24 21 -30 34 -26 51 5 19 3 21 -13 14 -22 -9 -38
-9 -77 1 -23 5 -34 1 -56 -20 -15 -14 -30 -23 -34 -19 -4 3 -7 -1 -7 -10 0 -9
5 -19 10 -22 14 -9 12 -25 -3 -25 -16 0 -38 56 -30 77 5 14 1 15 -27 10 -18
-4 -39 -7 -47 -7 -10 0 -12 -6 -8 -20 7 -23 2 -25 -26 -9 -13 6 -19 18 -17 32
4 31 -21 31 -59 1z m-513 -114 c0 -5 -4 -10 -10 -10 -5 0 -10 5 -10 10 0 6 5
10 10 10 6 0 10 -4 10 -10z m808 -84 c-20 -20 -30 -9 -15 15 7 11 15 15 21 9
5 -5 3 -15 -6 -24z m106 9 c-6 -16 -34 -21 -34 -7 0 13 11 22 26 22 8 0 11 -6
8 -15z m-334 -4 c0 -6 -4 -13 -10 -16 -5 -3 -10 1 -10 9 0 9 5 16 10 16 6 0
10 -4 10 -9z m-176 -36 c-4 -8 -12 -15 -20 -15 -8 0 -14 7 -14 15 0 8 9 15 20
15 13 0 18 -5 14 -15z m1438 -45 c7 0 6 -5 -2 -15 -6 -8 -9 -19 -5 -25 4 -7
-2 -6 -14 2 -24 14 -27 38 -8 57 10 10 13 9 15 -3 2 -9 8 -16 14 -16z m-2222
-26 c0 -8 -4 -12 -10 -9 -5 3 -10 10 -10 16 0 5 5 9 10 9 6 0 10 -7 10 -16z
m2642 -36 c-15 -15 -24 -6 -16 16 5 12 10 14 17 7 8 -8 8 -14 -1 -23z m91 -54
c3 -3 2 -17 -3 -30 -7 -18 -6 -22 5 -17 10 3 15 -2 15 -16 0 -30 -17 -26 -35
10 -21 39 -7 78 18 53z m420 -85 c25 0 21 -16 -7 -23 -26 -6 -76 8 -76 22 0 5
15 7 33 5 17 -2 40 -4 50 -4z m-413 -38 c0 -5 -7 -14 -15 -21 -12 -10 -15 -10
-15 2 0 8 3 18 7 21 9 10 23 9 23 -2z m355 -21 c3 -5 -1 -10 -10 -10 -9 0 -13
5 -10 10 3 6 8 10 10 10 2 0 7 -4 10 -10z m1040 -680 c3 -5 -1 -10 -9 -10 -9
0 -16 5 -16 10 0 6 4 10 9 10 6 0 13 -4 16 -10z m-7027 -1437 c-5 -25 -28 -28
-28 -4 0 12 6 21 16 21 9 0 14 -7 12 -17z m-148 -283 c0 -5 -7 -10 -15 -10 -8
0 -15 5 -15 10 0 6 7 10 15 10 8 0 15 -4 15 -10z m-42 -60 c-26 -35 -34 -37
-41 -9 -5 17 -2 20 14 16 12 -3 22 0 26 9 3 8 9 14 14 14 5 0 0 -13 -13 -30z
m-78 -200 c0 -5 -4 -10 -10 -10 -5 0 -10 5 -10 10 0 6 5 10 10 10 6 0 10 -4
10 -10z m-30 -10 c0 -5 -5 -10 -11 -10 -5 0 -7 5 -4 10 3 6 8 10 11 10 2 0 4
-4 4 -10z m-70 -320 c0 -5 -4 -10 -10 -10 -5 0 -10 5 -10 10 0 6 5 10 10 10 6
0 10 -4 10 -10z m348 -3309 c3 -8 -1 -12 -9 -9 -7 2 -15 10 -17 17 -3 8 1 12
9 9 7 -2 15 -10 17 -17z m112 -331 c0 -5 -4 -10 -10 -10 -5 0 -10 5 -10 10 0
6 5 10 10 10 6 0 10 -4 10 -10z m195 -320 c3 -5 1 -10 -4 -10 -6 0 -11 5 -11
10 0 6 2 10 4 10 3 0 8 -4 11 -10z"/>
<path d="M9173 10993 c-7 -3 -13 -12 -13 -21 0 -15 2 -15 17 1 18 18 16 27 -4
20z"/>
<path d="M9130 10944 c0 -8 5 -12 10 -9 6 3 10 10 10 16 0 5 -4 9 -10 9 -5 0
-10 -7 -10 -16z"/>
<path d="M7410 10825 c-13 -14 -21 -25 -18 -25 13 0 68 33 68 41 0 17 -27 9
-50 -16z"/>
<path d="M9900 10790 c0 -5 5 -10 11 -10 5 0 7 5 4 10 -3 6 -8 10 -11 10 -2 0
-4 -4 -4 -10z"/>
<path d="M13293 10331 c-17 -11 -35 -26 -40 -33 -4 -8 -34 -27 -66 -42 -66
-32 -86 -57 -94 -118 -3 -24 -12 -52 -19 -63 -29 -42 -11 -125 27 -125 18 0
19 -5 13 -49 -8 -60 2 -80 61 -122 26 -19 48 -44 52 -58 3 -14 15 -39 27 -56
18 -25 21 -41 18 -88 -4 -52 -7 -60 -34 -77 -17 -10 -24 -20 -17 -22 26 -9 -3
-30 -32 -24 l-29 6 0 -56 c0 -31 4 -53 9 -49 5 3 13 -5 17 -17 5 -16 2 -25
-11 -33 -10 -5 -40 -29 -67 -52 -27 -24 -60 -50 -74 -60 -19 -12 -24 -22 -19
-40 3 -14 -1 -33 -12 -49 -16 -25 -17 -25 -30 -8 -14 18 -15 18 -29 0 -18 -25
-18 -46 0 -46 8 0 16 -14 18 -32 4 -27 0 -38 -24 -60 -23 -21 -29 -34 -24 -51
8 -33 -58 -104 -80 -86 -12 9 -14 6 -14 -19 0 -17 5 -34 10 -37 6 -3 10 -15
10 -26 0 -23 15 -24 54 -4 27 15 52 12 30 -3 -6 -4 -13 -15 -17 -24 -5 -15
-11 -16 -39 -7 -18 6 -42 15 -52 21 -15 8 -18 7 -13 -5 3 -8 -5 -25 -19 -38
-13 -12 -26 -30 -30 -41 -8 -27 -21 -22 -63 20 -31 31 -39 48 -44 89 -3 29
-13 66 -22 83 -15 29 -20 32 -53 28 -31 -4 -42 0 -64 24 -14 15 -22 28 -18 28
29 0 10 107 -26 141 -19 17 -24 33 -24 68 0 60 -35 123 -75 135 -17 5 -40 13
-52 19 -17 8 -28 5 -51 -14 -17 -13 -32 -33 -34 -44 -2 -12 -11 -20 -23 -20
-27 -1 -45 -13 -41 -28 1 -7 1 -8 -2 -4 -7 13 -32 -14 -32 -35 0 -10 7 -33 16
-50 12 -22 19 -27 27 -19 17 17 35 13 42 -9 9 -29 23 -25 27 8 4 27 4 27 22
-12 9 -21 15 -45 12 -52 -4 -10 2 -14 19 -14 16 0 25 -6 25 -15 0 -8 -5 -15
-10 -15 -7 0 -7 -7 1 -21 7 -14 14 -18 21 -11 13 13 58 -9 58 -29 0 -22 38
-69 56 -69 8 0 14 -5 14 -10 0 -7 -6 -7 -19 -1 -16 9 -20 6 -25 -15 -5 -17
-12 -24 -22 -20 -12 5 -13 2 -3 -17 22 -41 61 -86 79 -92 9 -3 35 -31 56 -63
50 -73 49 -71 29 -85 -15 -11 -14 -15 9 -42 14 -17 26 -33 26 -37 0 -22 -21
-55 -44 -67 -22 -12 -26 -21 -26 -62 0 -27 5 -49 12 -51 20 -7 0 -26 -35 -33
-17 -4 -38 -12 -44 -17 -16 -13 -17 -48 -2 -48 7 0 9 -10 5 -26 -4 -16 -3 -23
3 -19 6 3 8 0 5 -8 -3 -9 -13 -13 -25 -10 -27 8 -25 -20 6 -53 19 -21 22 -30
14 -45 -5 -11 -15 -19 -23 -19 -7 0 -31 -16 -54 -36 -35 -30 -41 -40 -36 -62
3 -15 15 -34 25 -44 10 -9 19 -18 19 -21 0 -3 -20 -10 -45 -16 -59 -15 -80
-46 -72 -106 6 -41 3 -47 -19 -44 -12 1 -24 -26 -18 -43 3 -12 0 -18 -10 -18
-11 0 -16 -9 -16 -30 0 -28 -2 -30 -38 -30 -47 0 -68 -16 -77 -57 -7 -35 8
-51 30 -33 11 9 15 9 15 1 0 -6 9 -11 20 -11 11 0 20 -4 20 -10 0 -5 9 -10 20
-10 28 0 25 -13 -7 -27 -37 -18 -43 -16 -43 9 l0 22 -15 -20 c-8 -12 -30 -24
-52 -28 -28 -4 -44 -14 -60 -39 -13 -18 -23 -37 -23 -41 0 -5 -11 -22 -25 -38
-20 -23 -23 -33 -14 -44 15 -19 -24 -72 -59 -80 -44 -11 -81 -33 -98 -59 -15
-23 -14 -27 7 -64 15 -28 30 -41 48 -43 14 -2 25 -7 24 -12 -4 -12 -97 -14
-106 -2 -5 7 -18 -1 -35 -23 -15 -18 -49 -58 -75 -88 -38 -43 -47 -60 -43 -78
3 -13 2 -27 -4 -30 -5 -3 -10 -21 -10 -40 0 -19 -4 -37 -10 -40 -16 -10 -11
-25 6 -18 12 4 15 2 12 -8 -2 -7 -14 -16 -26 -19 -12 -3 -31 -19 -41 -36 -18
-29 -18 -32 -1 -66 21 -43 13 -59 -29 -63 -45 -3 -65 -36 -66 -105 l0 -55 -34
-1 c-29 0 -35 -5 -51 -40 -12 -24 -15 -43 -9 -49 15 -15 11 -25 -11 -25 -39 0
-71 -24 -90 -68 -11 -25 -20 -51 -20 -58 0 -8 -17 -25 -39 -38 -53 -34 -84
-75 -78 -105 7 -33 -1 -51 -23 -51 -13 0 -19 -11 -24 -50 -4 -27 -12 -53 -19
-57 -35 -23 -39 -40 -18 -87 15 -31 28 -46 43 -48 13 -2 24 -10 26 -19 4 -19
-38 -39 -83 -39 -65 0 -94 -81 -48 -132 19 -21 10 -48 -16 -48 -13 0 -21 -9
-25 -34 -8 -39 -27 -59 -64 -64 -15 -2 -32 -8 -39 -14 -9 -7 -18 -7 -29 3 -13
10 -17 10 -25 -2 -12 -19 -11 -52 1 -44 6 3 10 13 10 21 0 8 5 14 10 14 6 0
10 -9 10 -19 0 -11 2 -26 5 -33 4 -10 -4 -14 -27 -16 -52 -4 -78 -27 -78 -67
0 -20 5 -44 12 -54 14 -24 3 -60 -14 -43 -7 7 -22 12 -34 12 -13 0 -26 5 -29
11 -9 13 -64 2 -87 -19 -10 -8 -18 -27 -18 -42 0 -24 -6 -29 -55 -45 -30 -9
-65 -25 -76 -34 -21 -17 -21 -18 -4 -51 15 -28 16 -39 6 -66 -6 -18 -10 -38
-9 -46 2 -8 -5 -12 -18 -10 -12 1 -55 -9 -97 -23 -41 -14 -88 -25 -104 -25
-27 -1 -63 -20 -63 -34 0 -3 6 -6 13 -6 8 0 14 -12 14 -30 0 -16 -4 -30 -9
-30 -5 0 -6 5 -3 11 5 7 -6 9 -31 7 -35 -3 -38 -6 -42 -38 -2 -19 -7 -39 -11
-43 -9 -9 -41 2 -41 14 0 5 -7 9 -16 9 -11 0 -14 -5 -10 -16 7 -17 -10 -54
-24 -54 -6 0 -10 7 -10 16 0 8 -3 13 -8 11 -4 -3 -25 3 -46 14 -38 18 -40 18
-60 1 -11 -9 -29 -27 -39 -40 -10 -12 -30 -22 -43 -22 -32 0 -79 -24 -97 -50
-13 -19 -15 -19 -55 -4 -55 22 -88 13 -106 -31 -15 -35 -20 -37 -101 -50 -23
-4 -47 -15 -56 -27 -15 -19 -21 -20 -59 -10 -40 10 -70 7 -70 -7 0 -3 -10 -22
-22 -41 -12 -19 -22 -42 -22 -50 -1 -11 -13 -15 -51 -15 -27 0 -53 -4 -57 -10
-5 -6 -12 -5 -20 3 -10 10 -10 14 0 21 10 6 8 10 -8 14 -17 4 -33 -5 -69 -41
-26 -26 -56 -62 -67 -79 -12 -21 -26 -33 -40 -33 -16 0 -23 -8 -27 -29 -4 -19
-15 -32 -37 -41 -37 -15 -54 -43 -46 -76 5 -20 3 -24 -15 -24 -11 0 -36 -7
-55 -16 -38 -18 -45 -53 -19 -88 16 -21 20 -48 8 -44 -5 2 -22 -3 -38 -10 -37
-15 -89 -102 -80 -133 7 -20 92 -81 140 -99 17 -6 27 -20 31 -40 6 -26 11 -30
41 -30 28 0 33 -3 29 -18 -5 -15 0 -17 39 -14 25 2 45 8 45 12 0 4 11 15 25
24 22 15 31 15 60 5 29 -11 37 -10 52 3 16 15 22 15 52 2 18 -8 53 -14 78 -14
24 0 61 -9 83 -20 45 -23 64 -24 109 -9 27 10 31 15 31 49 l0 37 57 -1 c51 -1
59 2 68 22 7 17 16 21 31 18 25 -7 34 9 34 55 0 38 24 48 63 26 32 -19 44 -15
56 16 8 20 15 22 85 20 45 -2 76 1 76 7 0 6 5 10 11 10 5 0 7 -4 4 -10 -3 -5
2 -10 13 -10 22 0 57 35 48 49 -9 14 43 47 88 55 26 5 50 20 75 47 21 21 45
39 54 39 10 0 17 5 17 10 0 24 79 -2 101 -33 12 -17 33 -1 44 34 10 30 15 34
42 31 18 -2 35 3 43 13 10 13 15 13 21 3 6 -10 12 -8 23 7 11 15 26 20 63 20
48 0 48 0 58 39 7 29 6 41 -3 44 -20 6 -14 29 10 35 12 3 29 2 38 -3 9 -5 34
-8 55 -7 33 3 40 7 47 32 5 17 6 43 3 58 -7 42 30 89 64 81 30 -8 61 -42 54
-61 -7 -18 1 -16 48 7 22 12 37 25 33 31 -3 6 4 13 16 16 16 4 18 8 9 14 -15
9 -8 19 16 23 9 1 22 13 28 27 19 38 50 31 61 -14 10 -38 20 -44 46 -27 10 7
11 13 5 17 -15 11 -12 45 4 51 9 3 11 0 6 -7 -5 -9 3 -10 32 -5 55 10 63 20
63 78 0 61 12 76 57 76 24 0 42 8 61 27 34 35 83 69 112 78 12 4 28 23 37 42
8 19 22 37 32 40 31 8 67 114 54 161 -3 12 -14 24 -24 27 -29 9 -23 35 7 35
22 0 26 4 22 24 -4 21 -1 24 34 29 40 5 72 27 89 60 8 14 4 24 -19 46 l-29 29
28 26 c31 30 86 36 95 11 10 -24 34 2 34 36 0 35 -17 38 -30 7 -6 -16 -9 -18
-9 -7 -1 9 -8 20 -17 23 -14 5 -14 7 0 22 9 8 19 26 22 40 4 17 13 24 29 24
30 0 36 11 39 60 2 38 34 90 56 90 5 0 10 17 10 38 0 21 5 43 12 50 15 15 48
16 48 2 0 -16 38 12 43 32 3 11 11 16 20 12 19 -7 30 24 25 69 -3 31 -2 32 47
39 65 9 96 42 95 101 0 23 0 54 0 69 1 31 47 138 60 138 5 0 15 14 24 31 13
27 13 29 0 19 -22 -19 -30 -3 -10 19 10 11 24 17 32 14 9 -3 14 2 14 15 0 11
6 25 14 31 7 6 11 22 9 35 -4 20 3 29 41 51 42 25 46 30 46 66 0 26 5 39 13
39 19 0 57 43 57 64 0 9 -11 28 -25 42 -27 27 -25 28 36 38 80 14 117 75 74
122 -33 36 -32 50 9 64 35 11 65 40 83 80 20 44 21 55 5 73 -14 15 -13 17 2
17 9 0 19 -7 22 -15 10 -24 34 2 34 35 0 24 -3 27 -21 23 -35 -9 -19 29 20 49
19 9 38 21 43 26 13 13 -2 92 -18 92 -8 0 -14 5 -14 10 0 6 12 10 28 10 15 0
32 4 39 8 16 10 35 62 28 80 -3 8 3 16 14 19 11 3 27 21 37 41 9 21 23 45 31
54 9 10 13 24 10 33 -4 10 -1 15 10 15 9 0 31 11 50 26 56 43 81 113 46 132
-15 9 -14 12 5 37 12 15 22 23 22 16 0 -6 6 -11 14 -11 10 0 14 -14 13 -54 -1
-30 4 -61 11 -68 9 -11 8 -32 -3 -92 -15 -79 -13 -97 20 -136 7 -8 15 -24 17
-35 2 -11 10 -20 18 -20 9 0 16 -11 18 -30 1 -17 4 -48 6 -69 2 -21 -2 -57
-10 -79 -13 -36 -13 -46 1 -79 19 -48 19 -79 0 -104 -17 -23 -19 -72 -4 -111
6 -15 13 -53 15 -83 10 -174 13 -194 29 -202 14 -8 13 -13 -9 -39 -31 -37 -42
-88 -27 -130 6 -18 11 -43 11 -56 0 -13 6 -26 14 -29 8 -3 22 -17 31 -30 15
-23 15 -27 -5 -59 -12 -19 -27 -35 -33 -35 -6 0 7 -18 28 -40 38 -39 39 -41
17 -46 -26 -7 -27 -12 -7 -35 15 -15 12 -20 -33 -53 -67 -48 -86 -90 -74 -157
7 -34 6 -73 -1 -116 -10 -59 -10 -66 7 -78 17 -13 15 -17 -29 -59 -45 -43 -47
-47 -43 -93 2 -41 -1 -54 -26 -86 -24 -32 -28 -43 -22 -78 3 -22 12 -49 18
-59 11 -16 9 -22 -7 -34 -20 -15 -20 -15 0 -30 20 -15 20 -15 -2 -16 -19 0
-23 -5 -23 -35 0 -24 -5 -35 -15 -35 -8 0 -15 9 -15 19 0 10 -6 21 -14 24 -15
6 -26 -12 -26 -43 0 -10 -11 -38 -25 -61 -29 -52 -34 -137 -10 -183 15 -28 13
-46 -7 -46 -5 0 -8 7 -4 15 6 16 -12 20 -29 7 -15 -10 -45 -59 -45 -72 0 -7 6
-8 19 0 26 14 38 13 23 -2 -7 -7 -12 -21 -12 -32 0 -18 1 -17 20 4 l20 23 0
-24 c0 -16 -11 -31 -35 -46 -19 -13 -39 -23 -44 -23 -13 0 -21 27 -14 47 4 10
2 14 -4 10 -6 -4 -14 -23 -18 -43 -3 -20 -17 -61 -31 -92 -13 -30 -24 -68 -24
-84 0 -24 -6 -32 -35 -43 -41 -18 -53 -37 -62 -106 -7 -47 -12 -54 -48 -75
-25 -13 -48 -38 -62 -64 -12 -23 -38 -59 -58 -81 -34 -38 -46 -81 -25 -94 18
-11 10 -39 -20 -70 -22 -23 -30 -41 -32 -71 -1 -32 -6 -42 -27 -52 -14 -7 -35
-12 -46 -12 -32 0 -81 -27 -105 -57 -25 -33 -26 -46 0 -38 28 9 25 -8 -10 -57
-25 -34 -29 -48 -24 -75 4 -19 2 -39 -5 -47 -12 -14 -61 -10 -61 5 0 4 -13 3
-29 -2 -22 -8 -28 -15 -24 -27 4 -9 10 -20 15 -23 13 -8 -2 -39 -18 -39 -8 0
-14 9 -14 21 0 26 -22 20 -35 -9 -5 -12 -18 -25 -28 -28 -14 -4 -16 -9 -7 -19
15 -19 4 -35 -23 -35 -34 0 -76 -33 -101 -81 -21 -39 -29 -44 -77 -55 -77 -17
-109 -56 -109 -129 0 -32 -4 -55 -11 -55 -21 0 -81 -54 -94 -87 -10 -23 -21
-33 -37 -34 -13 -1 -30 -2 -38 -3 -8 -1 -20 -4 -27 -9 -6 -4 -14 -3 -18 3 -3
5 -2 10 3 10 5 0 12 9 15 20 3 11 2 20 -2 20 -10 0 -46 -40 -60 -67 -9 -18
-21 -23 -49 -23 -20 -1 -48 -7 -61 -14 -20 -11 -21 -14 -7 -19 10 -4 15 -11
11 -16 -3 -6 -12 -8 -19 -5 -8 3 -21 -4 -29 -16 -11 -15 -16 -18 -20 -8 -7 20
-20 2 -26 -39 l-6 -37 -51 3 c-45 2 -55 -1 -93 -33 -24 -20 -47 -36 -53 -36
-6 0 -29 -13 -53 -29 -23 -16 -59 -34 -79 -41 -20 -6 -41 -20 -46 -31 -6 -10
-21 -19 -34 -19 -17 0 -23 -5 -22 -18 1 -12 -5 -16 -21 -14 -16 2 -23 -2 -23
-12 0 -23 -17 -20 -31 5 -11 21 -11 21 -39 -6 -15 -15 -47 -31 -71 -36 -23 -6
-61 -23 -83 -40 -22 -16 -56 -34 -76 -39 -33 -9 -66 -37 -123 -103 -26 -29
-53 -37 -43 -12 12 33 -81 48 -134 20 -15 -8 -37 -26 -49 -41 l-20 -26 -44 17
c-41 16 -45 15 -96 -5 -30 -11 -78 -39 -109 -60 -65 -47 -86 -51 -80 -15 6 29
-7 32 -40 10 -18 -13 -29 -14 -63 -5 -61 17 -123 -8 -149 -60 -24 -46 -42 -54
-72 -31 -46 37 -267 44 -330 11 -24 -12 -40 -16 -44 -9 -7 12 -108 4 -161 -12
-23 -7 -38 -7 -55 2 -14 8 -79 14 -168 16 -80 2 -164 6 -187 9 -33 5 -49 2
-78 -16 -35 -22 -37 -22 -56 -4 -12 11 -36 19 -57 19 -30 0 -46 -9 -79 -41
-39 -37 -41 -42 -28 -61 8 -11 27 -26 44 -32 16 -7 31 -21 34 -32 5 -20 47
-27 47 -8 0 17 27 39 47 39 10 0 34 -9 54 -19 53 -29 107 -42 113 -28 3 7 3 2
1 -9 -4 -16 0 -23 17 -28 33 -8 38 -8 33 6 -2 7 2 21 9 31 12 16 19 17 58 7
74 -19 78 -21 78 -35 0 -8 16 -16 39 -20 38 -6 47 -3 139 46 19 11 26 9 47
-11 35 -33 91 -33 117 1 24 29 55 33 86 9 12 -10 31 -16 42 -13 14 4 20 0 20
-11 0 -19 35 -21 77 -5 24 9 26 12 12 22 -20 15 -13 37 11 37 10 0 22 5 25 10
4 6 16 3 32 -10 14 -11 33 -20 43 -20 18 0 53 35 63 63 4 10 11 16 17 12 5 -3
28 -1 51 5 22 6 43 9 46 7 2 -3 6 -25 8 -49 3 -40 5 -43 31 -41 35 3 54 21 34
33 -8 5 -19 6 -25 2 -5 -3 -4 1 3 10 7 8 10 23 6 32 -4 11 -1 16 10 16 9 0 16
-6 16 -14 0 -33 97 -21 121 16 3 5 30 11 60 15 63 7 79 16 72 43 -8 29 6 25
17 -5 12 -32 30 -32 30 -1 0 35 21 44 38 18 8 -12 21 -22 28 -22 8 0 14 -9 14
-20 0 -30 16 -24 46 15 22 29 33 35 65 35 27 0 39 4 39 14 0 8 7 16 15 20 8 3
15 12 15 21 0 8 5 15 10 15 6 0 10 -7 10 -16 0 -14 8 -16 56 -10 70 8 72 9 79
50 l7 33 43 -16 c44 -15 48 -15 155 19 14 5 37 11 51 14 15 3 29 14 32 26 4
14 13 20 35 20 16 0 37 9 47 20 12 13 31 20 55 20 46 0 60 14 60 62 0 33 4 40
28 49 15 6 45 12 67 13 54 4 92 25 137 75 34 38 39 41 59 29 17 -10 23 -10 26
0 6 17 23 15 23 -3 0 -21 13 -19 34 4 17 19 17 21 -3 42 -22 24 -25 37 -15 64
6 14 9 14 28 -4 11 -11 42 -25 68 -32 44 -12 52 -11 94 9 l46 23 -6 42 c-4 23
-13 47 -21 53 -23 17 -19 19 42 20 51 0 59 3 83 32 15 18 27 45 27 60 0 33 30
72 49 65 20 -7 66 6 59 17 -3 5 7 16 23 24 15 8 37 26 47 40 14 18 25 24 39
20 15 -5 18 -3 13 10 -4 9 -3 16 1 16 14 0 32 -24 32 -42 0 -26 23 -22 56 9
29 28 29 28 6 31 l-23 3 25 20 c13 10 29 19 35 19 6 0 11 9 11 20 0 13 10 24
25 30 14 5 28 17 31 25 4 8 15 15 25 15 11 0 35 7 55 15 35 14 35 14 28 65 -6
46 -5 50 14 50 21 0 105 51 118 71 8 14 -44 91 -56 84 -6 -4 -10 -2 -10 4 0 5
15 13 33 16 17 4 35 12 39 18 3 6 33 11 66 12 76 2 120 27 147 83 12 23 26 47
33 54 18 18 16 95 -3 102 -22 8 -19 46 4 46 24 0 81 52 81 74 0 9 -5 16 -11
16 -5 0 -7 5 -4 11 4 6 14 8 22 5 9 -4 21 1 28 10 11 16 12 16 18 0 4 -9 2
-16 -4 -16 -6 0 -7 -4 -4 -10 12 -20 44 -10 71 23 l27 32 -26 3 c-15 2 -27 10
-27 18 0 8 -4 14 -10 14 -5 0 -10 7 -10 15 0 9 9 15 21 15 14 0 19 -5 16 -15
-5 -12 -2 -12 21 -3 54 23 90 70 61 80 -7 2 -7 12 2 30 11 25 9 30 -12 47 -13
11 -27 20 -31 21 -5 0 -8 5 -8 11 0 6 15 8 44 4 51 -8 90 9 130 55 36 44 37
106 1 122 -14 6 -25 14 -25 17 1 17 62 73 91 83 42 14 49 24 49 70 0 31 6 42
36 64 55 42 81 112 55 152 -14 22 20 82 51 88 15 4 32 12 37 18 14 17 30 93
21 103 -12 13 -19 82 -9 88 5 4 9 21 9 39 0 28 5 36 31 46 16 7 42 28 56 46
22 30 24 41 22 109 -3 55 0 78 9 84 20 12 28 91 11 101 -7 5 -18 5 -25 -1 -14
-11 -47 28 -37 44 3 5 9 4 13 -3 9 -15 23 14 24 54 2 32 23 46 37 25 8 -12 11
-12 19 1 14 22 12 43 -2 34 -13 -8 -5 4 50 68 17 21 36 56 42 79 10 37 9 44
-11 65 -12 13 -42 33 -65 45 -34 16 -43 25 -40 42 2 13 11 23 23 25 14 2 19 9
16 20 -2 10 7 28 21 41 14 14 26 30 26 36 0 6 13 29 29 51 43 58 47 81 20 103
-21 17 -22 22 -11 45 16 35 16 113 0 119 -7 2 -10 8 -6 12 4 4 15 2 24 -5 25
-22 34 6 16 51 -11 28 -12 48 -5 76 11 46 1 103 -21 115 -25 14 -20 48 7 45
31 -3 34 35 8 104 -12 30 -21 63 -21 74 0 15 -3 16 -12 7 -12 -12 -48 -17 -48
-7 0 15 57 54 72 49 27 -8 32 16 9 47 -11 15 -21 33 -21 39 0 6 -4 9 -9 6 -5
-3 -14 1 -21 9 -8 9 -22 12 -41 8 -39 -8 -39 19 0 33 27 11 28 14 26 70 -1 42
3 67 17 89 24 39 23 86 -2 115 -11 13 -20 29 -20 37 0 7 -8 16 -17 20 -32 11
-63 46 -63 70 0 25 15 56 43 89 15 18 16 23 3 33 -11 9 -13 25 -9 61 5 46 4
49 -25 64 -44 23 -57 50 -37 80 20 31 23 97 6 130 -8 14 -31 37 -53 51 -40 27
-54 69 -21 63 12 -2 18 4 19 17 3 35 34 97 47 92 7 -2 23 4 36 15 19 15 27 16
39 6 13 -11 14 -7 10 27 -3 22 0 49 5 60 6 11 13 27 17 35 4 8 20 22 36 30 35
18 45 31 39 47 -2 7 1 12 8 10 8 -1 11 9 9 30 -3 27 2 34 26 47 37 19 60 70
44 96 -15 25 16 65 63 80 31 10 95 70 95 89 0 5 -7 14 -15 21 -23 19 -19 79 6
99 18 14 20 21 10 39 -16 30 -15 34 24 84 20 27 46 48 62 53 44 10 73 44 73
82 0 26 9 43 42 76 48 49 85 122 69 140 -5 7 -11 26 -13 42 -2 24 1 30 17 31
11 0 34 8 52 17 44 23 90 22 98 -2 8 -26 48 -34 95 -20 30 9 46 9 65 1 13 -6
54 -14 89 -18 l65 -7 21 36 c20 33 24 35 58 30 45 -7 51 -11 32 -24 -12 -8 -9
-9 10 -7 21 3 25 8 23 36 -2 35 23 57 51 46 10 -4 16 -1 16 10 0 28 35 86 53
86 9 0 17 5 17 10 0 6 7 10 16 10 12 0 15 -6 10 -24 -3 -14 -2 -27 3 -31 10
-6 27 59 22 85 -2 8 -11 26 -21 40 -22 32 -34 80 -20 80 6 0 15 -10 19 -22 9
-23 9 -23 20 5 6 16 11 39 11 52 0 27 -42 81 -69 90 -10 3 -26 25 -35 49 -10
27 -27 48 -44 57 -15 8 -40 26 -55 42 -16 15 -40 27 -53 27 -16 0 -41 17 -72
48 -70 69 -162 142 -181 142 -23 1 -51 24 -51 43 0 9 -9 18 -19 22 -10 3 -21
15 -24 25 -3 11 -14 20 -24 20 -10 0 -24 5 -31 12 -7 7 -12 9 -12 5 0 -4 -14
0 -31 8 -29 16 -30 17 -12 30 17 13 16 14 -14 15 -17 0 -68 13 -112 30 -45 16
-87 27 -94 24 -8 -3 -27 1 -43 7 -16 7 -33 11 -37 10 -14 -3 -61 39 -83 74
-11 19 -43 51 -70 72 -40 31 -60 39 -114 45 -36 4 -76 10 -90 13 -16 4 -37 -1
-57 -14z m-93 -931 c0 -5 -4 -10 -10 -10 -5 0 -10 5 -10 10 0 6 5 10 10 10 6
0 10 -4 10 -10z m630 -200 c0 -5 -4 -10 -10 -10 -5 0 -10 5 -10 10 0 6 5 10
10 10 6 0 10 -4 10 -10z m-960 -420 c0 -5 -4 -10 -10 -10 -5 0 -10 5 -10 10 0
6 5 10 10 10 6 0 10 -4 10 -10z m-410 -45 c0 -8 -4 -15 -10 -15 -5 0 -10 7
-10 15 0 8 5 15 10 15 6 0 10 -7 10 -15z m280 -394 c0 -6 -4 -13 -10 -16 -5
-3 -10 1 -10 9 0 9 5 16 10 16 6 0 10 -4 10 -9z m-10 -56 c0 -8 -4 -15 -10
-15 -5 0 -7 7 -4 15 4 8 8 15 10 15 2 0 4 -7 4 -15z m-75 -355 c20 -38 49 -54
74 -40 33 17 58 11 84 -20 14 -16 33 -30 41 -30 9 0 18 -11 22 -24 3 -14 15
-33 26 -42 16 -16 21 -16 29 -4 8 13 12 12 25 -5 16 -20 16 -20 9 3 -4 13 -2
22 4 22 6 0 11 -8 11 -19 0 -10 7 -24 15 -31 23 -19 18 -37 -20 -66 -20 -15
-35 -35 -35 -47 0 -11 -10 -39 -22 -63 -18 -37 -20 -49 -11 -79 11 -33 10 -35
-13 -35 -15 0 -24 -6 -24 -15 0 -8 -9 -15 -20 -15 -11 0 -20 5 -20 12 0 21
-26 -14 -43 -58 -9 -24 -12 -46 -7 -54 6 -10 -4 -29 -33 -62 -78 -88 -99 -118
-119 -170 -17 -45 -18 -59 -8 -91 14 -46 6 -73 -22 -80 -26 -7 -38 -1 -38 19
0 8 -5 14 -10 14 -7 0 -10 -19 -9 -45 2 -24 1 -46 -2 -48 -2 -2 -16 -8 -31
-15 -41 -17 -63 -58 -65 -124 0 -31 -4 -62 -8 -67 -3 -6 -1 -20 5 -31 7 -13 7
-20 0 -20 -5 0 -10 -16 -10 -35 0 -25 -4 -33 -13 -29 -26 10 -40 -23 -33 -76
4 -28 9 -57 12 -65 4 -10 0 -15 -14 -15 -14 0 -22 -8 -24 -22 -2 -13 -10 -23
-18 -23 -27 -1 -40 -16 -40 -44 0 -16 -7 -42 -15 -57 -8 -16 -15 -37 -15 -46
0 -23 -33 -78 -47 -78 -7 0 -29 -20 -50 -45 -20 -25 -42 -45 -48 -45 -30 0
-105 -133 -105 -186 0 -21 -10 -37 -36 -58 -44 -34 -77 -104 -68 -141 5 -20 3
-25 -13 -25 -34 0 -83 -35 -108 -77 -16 -25 -21 -44 -15 -48 5 -3 10 -14 10
-23 -1 -16 -2 -16 -14 1 -26 34 -46 10 -46 -58 0 -21 -13 -45 -45 -81 -24 -28
-41 -55 -37 -59 4 -5 2 -5 -4 -2 -13 8 -39 -19 -48 -50 -4 -12 -16 -25 -26
-28 -30 -9 -60 -59 -60 -99 0 -23 -11 -51 -31 -82 -33 -48 -38 -75 -24 -131 7
-30 5 -33 -14 -33 -33 0 -116 -83 -129 -129 -7 -21 -12 -47 -12 -58 0 -21 -72
-103 -90 -103 -21 0 -40 -59 -34 -101 l7 -41 -34 3 c-39 3 -79 -18 -72 -38 6
-16 2 -16 -33 -3 -35 14 -87 -3 -112 -35 -16 -20 -25 -22 -63 -18 -36 4 -56 0
-95 -20 -61 -31 -78 -50 -72 -81 3 -15 -1 -27 -13 -35 -15 -9 -24 -6 -53 19
-18 17 -42 30 -53 30 -11 0 -27 8 -35 18 -20 23 -30 89 -16 111 8 13 4 29 -17
71 -33 65 -75 120 -93 120 -10 0 -10 5 -2 21 7 11 9 27 6 35 -3 9 1 28 9 45
16 30 34 39 36 17 0 -10 2 -10 6 0 2 6 11 12 18 12 18 0 27 -30 14 -47 -7 -7
-10 -16 -7 -18 10 -11 49 57 50 89 1 37 32 66 51 47 6 -6 19 -11 29 -11 10 0
29 -7 42 -16 30 -19 36 -10 31 49 -4 51 10 67 58 67 29 0 96 64 99 94 0 12 1
41 2 65 1 52 21 65 38 24 l12 -28 4 27 c2 16 16 36 33 49 53 37 74 105 45 144
-11 16 -10 22 12 46 13 15 36 29 50 31 23 3 24 5 10 18 -18 19 -7 59 17 62 8
0 21 1 28 2 7 1 11 -9 9 -26 -6 -46 15 -39 28 10 23 90 27 97 53 110 15 7 27
16 28 20 3 27 9 46 18 55 6 6 6 15 -1 27 -6 10 -8 24 -5 33 5 13 12 14 36 7
26 -7 31 -6 31 8 0 8 10 26 21 39 23 24 78 165 86 221 3 18 9 35 14 38 5 3 9
14 9 25 0 10 7 19 15 19 8 0 18 12 21 28 4 15 22 54 41 88 34 62 35 85 5 141
-16 30 -4 60 26 66 34 7 50 0 58 -25 9 -29 24 -3 24 43 0 28 7 42 35 66 19 17
35 38 35 46 0 8 17 26 38 39 22 15 64 65 104 124 36 55 78 110 92 123 22 20
26 33 26 77 0 46 4 55 30 77 29 25 29 26 7 29 -14 2 -21 9 -21 21 1 9 -2 17
-7 17 -5 0 -9 7 -9 15 0 19 37 38 74 37 25 -1 41 10 83 56 29 31 57 70 63 86
6 17 21 47 34 66 36 53 39 74 16 95 -30 27 -25 35 26 35 38 0 51 5 74 30 16
17 31 44 35 60 4 17 22 48 41 71 21 26 34 52 34 70 0 15 8 44 17 64 14 30 15
43 6 78 -8 29 -8 44 -1 48 6 4 7 12 3 19 -4 6 1 17 11 25 18 13 18 14 2 15
-16 0 -16 2 2 20 11 11 26 17 36 13 12 -4 15 0 14 18 -1 13 -2 43 -1 66 1 37
4 42 29 46 70 10 81 8 97 -23z m510 -480 c-6 -9 -9 -9 -16 1 -10 17 0 34 13
21 6 -6 7 -16 3 -22z m-913 -102 c-15 -15 -26 -4 -18 18 5 13 9 15 18 6 9 -9
9 -15 0 -24z m828 -58 c0 -5 -4 -10 -10 -10 -5 0 -10 5 -10 10 0 6 5 10 10 10
6 0 10 -4 10 -10z m27 -186 c-9 -9 -28 6 -21 18 4 6 10 6 17 -1 6 -6 8 -13 4
-17z m-1022 -83 c3 -5 1 -12 -4 -15 -5 -3 -11 1 -15 9 -6 16 9 21 19 6z m505
-131 c0 -5 -4 -10 -10 -10 -5 0 -10 5 -10 10 0 6 5 10 10 10 6 0 10 -4 10 -10z
m50 -140 c0 -5 -2 -10 -4 -10 -3 0 -8 5 -11 10 -3 6 -1 10 4 10 6 0 11 -4 11
-10z m655 -130 c3 -5 -3 -10 -14 -10 -12 0 -21 -7 -21 -15 0 -8 -7 -15 -15
-15 -14 0 -13 3 2 25 19 26 38 32 48 15z m-1685 -221 c0 -18 -2 -19 -15 -9
-15 12 -12 30 6 30 5 0 9 -10 9 -21z m40 -14 c0 -8 -7 -15 -15 -15 -8 0 -15 7
-15 15 0 8 7 15 15 15 8 0 15 -7 15 -15z m810 1 c0 -9 -30 -14 -35 -6 -4 6 3
10 14 10 12 0 21 -2 21 -4z m-960 -271 c0 -8 -7 -15 -15 -15 -8 0 -15 7 -15
15 0 8 7 15 15 15 8 0 15 -7 15 -15z m653 -126 c3 -13 1 -19 -6 -16 -15 5 -22
37 -9 37 5 0 12 -9 15 -21z m-33 -29 c0 -5 -2 -10 -4 -10 -3 0 -8 5 -11 10 -3
6 -1 10 4 10 6 0 11 -4 11 -10z m-960 -140 c0 -5 -7 -10 -15 -10 -8 0 -15 5
-15 10 0 6 7 10 15 10 8 0 15 -4 15 -10z m-15 -310 c3 -5 1 -10 -4 -10 -6 0
-11 5 -11 10 0 6 2 10 4 10 3 0 8 -4 11 -10z m505 -286 c0 -14 -3 -14 -15 -4
-8 7 -15 14 -15 16 0 2 7 4 15 4 8 0 15 -7 15 -16z m1340 -414 c0 -5 -4 -10
-10 -10 -5 0 -10 5 -10 10 0 6 5 10 10 10 6 0 10 -4 10 -10z m-89 -338 c-7 -2
-18 1 -23 6 -8 8 -4 9 13 5 13 -4 18 -8 10 -11z m-3135 -443 c3 -6 -1 -18 -10
-27 -15 -15 -16 -14 -16 11 0 27 13 36 26 16z m514 -179 c0 -5 -5 -10 -11 -10
-5 0 -7 5 -4 10 3 6 8 10 11 10 2 0 4 -4 4 -10z m1505 -1060 c-3 -5 -11 -10
-16 -10 -6 0 -7 5 -4 10 3 6 11 10 16 10 6 0 7 -4 4 -10z m-1845 -890 c0 -5
-4 -10 -10 -10 -5 0 -10 5 -10 10 0 6 5 10 10 10 6 0 10 -4 10 -10z m-735
-240 c3 -5 -1 -10 -9 -10 -9 0 -16 5 -16 10 0 6 4 10 9 10 6 0 13 -4 16 -10z"/>
<path d="M11995 6930 c-3 -5 1 -10 9 -10 9 0 16 5 16 10 0 6 -4 10 -9 10 -6 0
-13 -4 -16 -10z"/>
<path d="M11585 6220 c3 -5 8 -10 11 -10 2 0 4 5 4 10 0 6 -5 10 -11 10 -5 0
-7 -4 -4 -10z"/>
<path d="M11371 9861 c-10 -6 -10 -10 -1 -16 13 -8 24 -1 19 14 -3 6 -10 7
-18 2z"/>
<path d="M15875 9823 c8 -43 23 -66 37 -57 12 8 3 61 -13 81 -21 25 -31 14
-24 -24z"/>
<path d="M11826 9724 c-10 -26 -7 -29 24 -31 30 -2 30 -2 14 22 -19 29 -29 31
-38 9z"/>
<path d="M15820 9497 c0 -19 59 -67 75 -60 23 8 18 27 -15 51 -33 25 -60 29
-60 9z"/>
<path d="M2850 9111 c0 -5 7 -16 15 -25 8 -8 15 -19 15 -24 0 -14 32 -24 42
-14 5 5 -3 22 -19 40 -26 31 -53 42 -53 23z"/>
<path d="M8665 8139 c-16 -4 -52 -7 -79 -8 -62 -1 -156 -46 -156 -74 0 -16 -5
-18 -40 -12 -33 6 -40 4 -40 -9 0 -12 -6 -15 -25 -10 -16 4 -34 0 -49 -9 -16
-11 -36 -14 -59 -10 -28 4 -38 1 -48 -15 -10 -17 -17 -18 -41 -10 -20 7 -33 7
-42 -1 -8 -7 -31 -9 -60 -5 -40 6 -50 4 -71 -16 -13 -12 -33 -42 -45 -67 -22
-48 -43 -62 -65 -43 -23 19 -122 2 -143 -25 -11 -14 -36 -27 -62 -32 -46 -9
-58 -22 -77 -88 -6 -21 -16 -31 -32 -33 -13 -2 -26 -12 -28 -23 -7 -24 -19
-24 -32 -1 -8 14 -12 15 -23 4 -11 -11 -10 -14 1 -21 11 -7 8 -13 -13 -26 -14
-10 -26 -24 -26 -31 0 -8 -5 -14 -11 -14 -16 0 -109 -100 -122 -130 -12 -29
-13 -36 -15 -72 -2 -25 -5 -27 -54 -30 l-52 -3 -15 -48 c-13 -41 -18 -47 -36
-43 -18 5 -24 -1 -32 -28 -9 -29 -7 -40 9 -66 10 -18 18 -33 16 -34 -2 -1 -23
-8 -48 -15 -25 -7 -55 -22 -67 -34 -30 -27 -40 -82 -20 -105 15 -16 13 -21
-32 -59 -62 -53 -73 -89 -36 -119 24 -19 25 -23 14 -47 -12 -27 -29 -36 -29
-16 0 5 -4 8 -9 5 -12 -8 -20 -56 -10 -56 5 0 9 -4 9 -10 0 -5 -7 -10 -15 -10
-10 0 -15 -10 -15 -30 0 -16 5 -30 10 -30 12 0 14 -33 3 -44 -4 -4 -8 -31 -8
-59 -1 -34 -10 -69 -25 -100 -20 -41 -22 -51 -11 -68 11 -19 10 -20 -8 -14
-16 5 -21 2 -21 -12 0 -20 29 -66 30 -47 0 17 38 24 67 13 21 -8 23 -12 13
-24 -15 -18 -36 -19 -44 -2 -3 6 -3 2 -1 -10 3 -12 1 -24 -5 -28 -14 -8 -13
-35 3 -68 10 -23 17 -26 42 -22 17 3 25 2 18 -1 -7 -3 -10 -11 -7 -19 3 -7 -3
-16 -15 -20 -26 -8 -38 -51 -22 -77 6 -10 8 -30 5 -44 -4 -17 -1 -31 11 -44
20 -22 13 -36 -33 -74 -19 -15 -22 -24 -16 -50 8 -39 10 -41 28 -27 9 8 16 8
20 2 4 -6 13 -8 21 -4 18 6 21 -23 3 -30 -10 -4 -10 -8 -1 -14 8 -6 9 -22 2
-58 l-10 -50 48 -45 c69 -64 85 -93 73 -125 -23 -60 -7 -105 37 -105 22 0 23
-2 17 -55 l-7 -54 47 -12 c38 -9 47 -16 52 -38 9 -43 19 -55 75 -86 49 -28 55
-35 66 -79 14 -58 78 -189 103 -211 16 -15 21 -15 48 -1 l30 15 6 -40 c7 -46
52 -99 84 -99 10 0 27 9 37 20 25 27 32 25 50 -12 29 -62 60 -97 95 -109 19
-6 41 -18 47 -27 26 -32 116 -52 152 -32 15 8 22 3 37 -25 23 -43 31 -46 77
-30 34 12 38 11 48 -6 12 -22 31 -26 23 -4 -4 8 -1 15 5 15 6 0 10 -5 8 -10
-3 -16 55 -48 60 -32 7 20 33 14 33 -8 0 -26 34 -43 71 -35 21 5 36 1 56 -14
24 -20 28 -20 47 -6 12 8 32 21 45 27 21 11 26 10 39 -10 8 -12 21 -22 28 -22
8 0 14 -4 14 -10 0 -5 -4 -10 -10 -10 -20 0 -9 -28 13 -34 35 -9 47 -7 47 9 0
8 -8 15 -17 15 -17 1 -17 1 0 11 9 5 17 16 17 23 0 17 47 49 60 41 6 -4 17
-20 25 -36 19 -36 35 -30 36 14 l2 32 6 -35 c4 -19 4 -39 -1 -45 -16 -18 -8
-35 16 -35 40 0 58 10 45 26 -14 17 -2 37 18 30 10 -4 13 -2 10 8 -8 20 27 30
53 16 12 -6 28 -9 35 -6 8 3 17 1 20 -5 4 -5 14 -4 26 5 16 10 29 11 60 4 33
-9 43 -8 58 6 10 10 32 21 47 25 16 4 33 16 38 28 10 20 10 20 57 -4 34 -18
56 -23 77 -18 32 7 75 42 67 54 -2 5 4 11 15 14 11 3 27 21 35 40 17 42 64 57
102 32 13 -9 27 -14 31 -11 5 3 21 30 36 60 16 31 35 56 43 56 7 0 25 11 39
25 14 14 29 25 34 25 21 0 59 24 63 40 3 13 11 16 31 13 14 -3 26 -9 26 -14 0
-5 6 -9 14 -9 8 0 20 19 27 44 13 45 34 61 105 81 22 6 34 40 34 97 0 16 6 30
13 32 6 2 34 12 61 21 46 17 48 19 42 48 -3 17 -14 39 -22 49 -16 16 -15 18 2
25 34 13 68 52 79 90 8 30 17 38 44 46 24 6 36 5 41 -3 12 -19 22 5 14 35 -6
24 -24 35 -24 14 0 -5 -4 -7 -10 -4 -13 8 -13 25 1 25 12 0 39 25 39 36 0 4 8
12 17 19 16 12 16 16 3 39 -11 21 -11 29 -1 39 9 9 14 9 21 -3 11 -18 20 -10
50 45 13 22 22 52 22 68 -1 29 7 34 26 15 9 -9 12 -4 12 25 0 40 -13 48 -29
20 -6 -10 -11 -13 -11 -6 0 6 -10 13 -22 15 -13 2 -23 10 -23 18 0 8 6 14 13
12 9 -1 11 5 6 23 -5 22 -3 25 18 25 14 0 28 3 32 8 4 4 13 7 19 7 25 0 16 33
-18 67 l-35 37 26 20 c15 12 30 21 34 21 4 0 15 15 24 33 15 30 14 33 -3 47
-10 9 -20 28 -23 44 -5 23 -1 29 21 39 14 6 28 12 30 14 2 1 -4 14 -13 27 -20
31 -21 60 -2 75 38 31 20 102 -30 121 -20 8 -22 15 -21 69 2 45 7 65 23 83 48
52 57 108 26 149 -10 13 -21 32 -25 42 -4 9 -10 17 -14 16 -19 -3 -27 2 -16 9
7 4 10 17 6 30 -4 17 -10 21 -24 17 -22 -7 -39 23 -20 35 10 5 9 15 -3 44 -8
20 -19 36 -25 36 -26 0 -10 72 21 91 18 11 -14 64 -39 64 -10 0 -19 9 -21 19
-2 11 -10 26 -18 34 -19 18 -18 32 4 32 12 0 8 7 -16 26 -28 23 -32 30 -26 58
5 28 1 37 -25 61 -22 22 -27 32 -19 42 8 9 5 14 -8 19 -44 13 -82 33 -112 59
-27 23 -32 32 -27 55 6 28 -11 52 -24 33 -3 -5 -17 -7 -31 -3 -18 4 -21 8 -11
14 9 6 10 10 2 16 -9 5 -9 14 -1 35 8 21 7 39 -5 75 -22 65 -44 84 -91 75
l-37 -6 7 32 c5 25 1 38 -16 56 -25 27 -45 30 -50 6 -3 -16 -4 -16 -20 0 -9 9
-21 17 -27 17 -6 0 -16 18 -22 40 -10 31 -18 40 -41 46 -17 3 -39 15 -50 26
-15 15 -29 19 -54 15 -22 -4 -36 -1 -41 7 -5 7 -26 16 -47 19 -21 3 -50 17
-63 29 -13 13 -43 28 -66 34 -30 7 -42 15 -41 27 1 10 -5 17 -16 17 -10 0 -31
11 -47 24 -39 32 -54 35 -85 20 -26 -13 -28 -12 -63 36 -45 61 -63 67 -114 38
l-40 -23 -44 24 c-34 18 -48 21 -62 13 -15 -8 -26 -5 -52 15 -38 30 -86 42
-128 32z m1595 -1511 c0 -18 -27 11 -33 35 -6 22 -6 22 14 -2 10 -13 19 -28
19 -33z m-730 22 c0 -5 -4 -10 -10 -10 -5 0 -10 5 -10 10 0 6 5 10 10 10 6 0
10 -4 10 -10z m829 -357 c12 -44 6 -56 -22 -47 -31 9 -30 8 -16 48 16 46 25
45 38 -1z m-1689 -29 c14 -7 36 -23 49 -34 20 -18 22 -23 11 -30 -9 -6 -13
-22 -12 -43 2 -21 -3 -38 -12 -47 -9 -7 -19 -30 -22 -51 -4 -21 -12 -43 -18
-47 -23 -19 -73 -21 -96 -5 -12 8 -54 19 -93 23 -57 7 -74 13 -89 32 -24 32
-22 71 6 105 13 15 33 47 45 70 17 34 27 43 53 46 51 7 150 -4 178 -19z m178
-180 c-24 -24 -44 -7 -22 17 12 13 21 16 28 9 7 -7 5 -15 -6 -26z m-498 -90
c0 -17 -26 -19 -36 -3 -7 12 15 31 28 23 4 -3 8 -12 8 -20z m1210 11 c0 -9 -6
-12 -15 -9 -8 4 -12 10 -9 15 8 14 24 10 24 -6z m-2580 -106 c0 -6 -4 -7 -10
-4 -5 3 -10 11 -10 16 0 6 5 7 10 4 6 -3 10 -11 10 -16z m1438 -148 c3 -8 -1
-12 -9 -9 -7 2 -15 10 -17 17 -3 8 1 12 9 9 7 -2 15 -10 17 -17z m32 -776 c0
-8 -4 -15 -10 -15 -5 0 -10 7 -10 15 0 8 5 15 10 15 6 0 10 -7 10 -15z m-943
-147 c-3 -8 -6 -5 -6 6 -1 11 2 17 5 13 3 -3 4 -12 1 -19z m584 -194 c11 -14
10 -15 -11 -12 -13 1 -25 9 -28 16 -5 17 23 15 39 -4z m-24 -30 c-3 -3 -12 -4
-19 -1 -8 3 -5 6 6 6 11 1 17 -2 13 -5z"/>
<path d="M15812 7850 c0 -14 2 -19 5 -12 2 6 2 18 0 25 -3 6 -5 1 -5 -13z"/>
<path d="M2879 7841 c-1 -6 -1 -22 -1 -36 0 -40 1 -45 12 -45 6 0 10 18 10 39
0 22 -4 43 -10 46 -5 3 -10 1 -11 -4z"/>
<path d="M2881 7613 c-15 -52 -14 -73 3 -73 17 0 26 22 26 65 0 48 -17 52 -29
8z"/>
<path d="M10040 7415 c33 -19 50 -18 26 0 -11 8 -27 15 -35 15 -10 -1 -7 -6 9
-15z"/>
<path d="M13281 7164 c0 -11 3 -14 6 -6 3 7 2 16 -1 19 -3 4 -6 -2 -5 -13z"/>
<path d="M13361 6774 c0 -11 3 -14 6 -6 3 7 2 16 -1 19 -3 4 -6 -2 -5 -13z"/>
<path d="M13365 6740 c-3 -5 -1 -10 4 -10 6 0 11 5 11 10 0 6 -2 10 -4 10 -3
0 -8 -4 -11 -10z"/>
<path d="M15615 6449 c-4 -6 -5 -12 -2 -15 2 -3 7 2 10 11 7 17 1 20 -8 4z"/>
<path d="M10307 5373 c-4 -3 -7 -13 -7 -22 1 -13 3 -13 11 2 11 19 8 33 -4 20z"/>
<path d="M15798 5202 c-5 -33 0 -52 13 -52 5 0 9 18 9 40 0 46 -16 54 -22 12z"/>
<path d="M9758 4703 c7 -3 16 -2 19 1 4 3 -2 6 -13 5 -11 0 -14 -3 -6 -6z"/>
<path d="M15777 4693 c-4 -3 -7 -11 -7 -17 0 -6 5 -5 12 2 6 6 9 14 7 17 -3 3
-9 2 -12 -2z"/>
<path d="M14068 3243 c-10 -2 -18 -8 -18 -13 0 -15 -68 -40 -111 -40 -47 0
-114 -38 -124 -71 -9 -29 -28 -23 -21 6 4 14 5 25 3 25 -2 0 -32 -12 -68 -26
-99 -40 -120 -65 -129 -154 -4 -48 -8 -55 -26 -53 -31 3 -47 -33 -34 -76 8
-28 7 -36 -8 -47 -9 -7 -23 -14 -30 -14 -8 0 -11 -7 -8 -18 4 -12 -2 -21 -24
-30 -34 -16 -57 -8 -40 13 7 8 8 20 4 27 -20 32 -32 -128 -14 -176 7 -19 17
-26 37 -27 l28 -1 -25 -10 c-21 -8 -30 -24 -44 -74 -10 -35 -16 -76 -13 -91
31 -152 36 -168 71 -195 l21 -17 -25 -48 c-29 -55 -30 -76 -8 -118 21 -40 18
-89 -4 -93 -12 -2 -18 3 -18 13 0 9 -9 28 -20 42 -17 22 -20 23 -20 7 1 -34
38 -102 60 -109 19 -6 21 -11 15 -60 -6 -41 -3 -58 11 -79 20 -31 82 -66 117
-66 44 0 86 57 67 91 -12 21 3 124 18 124 6 0 12 3 12 8 0 4 0 11 0 16 0 5
-18 16 -40 25 -46 18 -51 31 -16 40 20 5 26 16 35 58 9 40 9 53 -1 59 -8 5 -1
8 18 6 20 -1 30 -6 27 -14 -9 -22 10 -14 50 22 22 19 45 51 52 71 13 38 49 61
100 64 32 1 78 47 72 72 -7 26 43 118 64 118 25 0 69 39 63 55 -8 21 13 53 49
72 l32 17 -25 7 c-21 6 -20 7 13 8 25 1 36 -3 31 -10 -4 -7 1 -10 12 -7 12 2
22 17 28 42 5 22 20 49 34 61 l24 21 -36 34 c-25 24 -32 36 -23 42 9 6 9 10
-3 17 -8 6 -11 13 -8 16 4 4 13 3 20 -1 22 -14 38 -13 38 3 0 11 5 13 18 8 9
-4 36 -14 59 -22 41 -15 42 -14 87 17 50 34 80 81 71 109 -3 11 4 26 20 41 28
26 32 40 11 40 -18 0 -26 32 -12 47 6 6 20 21 31 34 17 21 20 22 23 7 2 -10
10 -18 19 -18 12 0 14 -7 10 -30 -4 -16 -2 -32 3 -35 6 -3 10 -11 10 -16 0 -6
-4 -7 -10 -4 -13 8 -13 -5 0 -25 8 -13 10 -12 10 3 0 26 25 21 38 -8 6 -14 18
-25 27 -25 9 0 16 -10 16 -22 1 -13 3 -32 5 -43 2 -11 6 -33 8 -49 3 -16 10
-32 16 -36 6 -4 14 -20 19 -36 9 -37 -15 -84 -44 -83 l-20 0 20 9 c18 8 17 9
-7 9 -17 1 -27 -4 -25 -11 1 -8 -8 -13 -23 -13 -20 0 -26 -6 -28 -27 -3 -29
-17 -37 -25 -15 -11 25 -28 -18 -22 -55 4 -30 1 -40 -16 -52 -17 -11 -20 -22
-17 -49 3 -32 1 -36 -25 -41 -16 -3 -33 -4 -37 -1 -4 3 -10 -7 -13 -20 -5 -29
11 -45 24 -24 7 11 9 10 9 -5 0 -16 -5 -18 -34 -13 -43 7 -50 0 -30 -31 l16
-24 -39 7 c-32 5 -42 2 -58 -14 -10 -12 -22 -21 -28 -21 -22 0 -65 -41 -60
-58 4 -16 -6 -20 -76 -29 -90 -12 -138 -39 -167 -96 -9 -18 -27 -43 -40 -56
-13 -13 -24 -32 -24 -41 0 -23 38 -70 56 -70 28 0 13 -22 -26 -37 -22 -9 -40
-20 -40 -25 0 -4 -17 -8 -38 -8 -21 0 -44 -6 -51 -12 -8 -9 -7 0 4 25 8 20 11
37 6 37 -10 0 -51 -53 -51 -65 0 -4 -13 -23 -30 -42 -16 -18 -30 -40 -30 -47
0 -7 -11 -18 -25 -24 -22 -10 -25 -9 -25 7 0 26 -25 46 -37 29 -28 -44 -33
-61 -22 -74 6 -8 18 -14 25 -14 9 0 14 -12 14 -33 0 -25 7 -39 30 -55 36 -27
43 -28 35 -2 -4 14 -2 20 9 20 8 0 19 7 24 15 7 13 14 14 36 5 15 -5 32 -8 36
-5 5 3 6 -10 3 -30 -7 -46 6 -45 54 8 38 41 130 97 160 97 8 0 31 -13 50 -30
21 -19 45 -30 64 -30 26 0 33 6 47 40 12 28 23 40 38 40 11 0 25 5 31 11 8 8
21 8 48 -1 61 -20 108 -1 135 56 14 28 37 55 61 69 26 17 39 33 41 52 2 23 7
27 27 25 28 -4 41 12 41 50 0 21 6 29 25 34 34 8 65 50 65 86 0 16 6 31 15 35
9 3 22 21 31 41 13 33 13 37 -7 58 -17 18 -19 26 -10 43 7 12 18 21 26 21 8 0
15 8 15 18 0 10 7 27 15 38 21 27 18 53 -6 73 -17 14 -20 21 -11 37 12 22 38
130 47 193 6 48 -14 85 -41 74 -8 -3 -24 3 -35 13 -21 18 -21 18 6 26 19 5 32
2 42 -8 17 -16 43 -19 43 -3 0 6 8 8 18 5 13 -5 22 1 30 19 16 35 15 55 -3 55
-8 0 -15 6 -15 13 0 9 -2 9 -9 -1 -6 -10 -11 -10 -21 3 -11 14 -11 20 -1 37
11 18 7 26 -38 78 -28 32 -51 66 -51 75 0 9 -9 33 -19 53 -11 20 -27 56 -37
80 -24 59 -56 82 -111 82 -58 0 -103 -26 -110 -64 -6 -27 -7 -28 -19 -11 -7
10 -11 22 -7 28 7 12 -14 1 -39 -21 -12 -10 -41 -15 -80 -16 -59 -1 -63 0 -62
22 0 18 -5 22 -33 22 -18 0 -33 -4 -33 -10 0 -17 -29 -11 -40 9 -7 14 -6 21 3
25 6 3 -7 4 -30 1 -26 -3 -43 -1 -43 5 0 10 -68 12 -102 3z m92 -17 c0 -3 -4
-8 -10 -11 -5 -3 -10 -1 -10 4 0 6 5 11 10 11 6 0 10 -2 10 -4z m580 -56 c0
-5 -4 -10 -9 -10 -6 0 -13 5 -16 10 -3 6 1 10 9 10 9 0 16 -4 16 -10z m20 -30
c0 -5 -4 -10 -9 -10 -6 0 -13 5 -16 10 -3 6 1 10 9 10 9 0 16 -4 16 -10z
m-803 -84 c-8 -20 132 -33 165 -15 13 7 44 14 70 15 42 2 47 0 58 -27 10 -24
9 -36 -4 -70 -19 -46 -14 -74 15 -89 35 -19 23 -39 -20 -33 -34 5 -43 1 -79
-32 -31 -27 -47 -35 -62 -30 -30 10 -84 -35 -120 -99 -27 -48 -65 -96 -75 -96
-2 0 -11 12 -19 27 l-14 28 -12 -25 c-6 -14 -33 -39 -59 -57 -29 -18 -55 -46
-65 -68 -17 -35 -17 -38 0 -56 13 -15 14 -19 3 -23 -43 -14 -44 -15 -21 -21
12 -4 22 -12 22 -17 0 -5 -9 -7 -19 -3 -11 3 -26 -1 -36 -11 -14 -15 -18 -15
-26 -3 -5 8 -9 9 -9 3 0 -6 -11 -11 -25 -11 -18 0 -25 5 -25 19 0 10 -7 30
-16 44 -14 21 -15 31 -5 64 7 23 18 40 26 40 8 0 15 4 15 8 0 10 -55 52 -68
52 -5 0 -15 6 -21 14 -10 12 -8 15 11 18 13 2 22 9 20 17 -2 9 3 11 14 7 14
-5 15 -1 10 26 -4 18 -9 59 -11 92 -4 54 -3 58 14 53 30 -7 63 34 59 72 -3 36
13 51 45 43 12 -3 18 -1 14 5 -11 17 21 39 35 25 7 -7 20 -12 30 -12 10 0 18
-7 18 -16 0 -9 6 -14 13 -12 17 6 39 52 27 56 -20 7 -9 32 14 32 25 0 76 44
76 66 0 8 9 14 21 14 14 0 19 -5 16 -14z m163 -342 c0 -8 -4 -12 -10 -9 -5 3
-10 10 -10 16 0 5 5 9 10 9 6 0 10 -7 10 -16z m48 -7 c5 -24 -15 -21 -28 4
-10 18 -9 20 7 17 10 -2 19 -11 21 -21z m492 -127 c0 -5 -4 -10 -10 -10 -5 0
-10 5 -10 10 0 6 5 10 10 10 6 0 10 -4 10 -10z m15 -30 c33 -12 28 -34 -8 -37
-29 -2 -42 10 -33 32 6 18 7 18 41 5z m-1215 -130 c0 -5 -7 -10 -16 -10 -8 0
-12 5 -9 10 3 6 10 10 16 10 5 0 9 -4 9 -10z m1270 -140 c0 -47 -4 -80 -10
-80 -20 0 -25 2 -22 11 6 22 -20 6 -39 -23 -20 -33 -21 -72 -4 -112 6 -13 5
-17 -3 -12 -32 20 -122 -55 -122 -102 0 -22 -22 -34 -45 -26 -10 4 -13 13 -10
25 9 29 -6 23 -50 -20 -34 -32 -105 -65 -105 -48 0 20 86 147 115 170 19 15
35 36 35 45 0 10 9 35 20 57 11 22 20 47 20 56 0 9 14 22 30 29 17 7 35 21 41
31 5 11 19 19 30 19 25 0 71 23 88 44 25 30 31 16 31 -64z m-80 60 c0 -5 -2
-10 -4 -10 -3 0 -8 5 -11 10 -3 6 -1 10 4 10 6 0 11 -4 11 -10z m-1090 -200
c0 -5 -7 -10 -15 -10 -8 0 -15 5 -15 10 0 6 7 10 15 10 8 0 15 -4 15 -10z
m857 -56 c-3 -3 -12 -4 -19 -1 -8 3 -5 6 6 6 11 1 17 -2 13 -5z m-137 -224 c0
-5 -4 -10 -10 -10 -5 0 -10 5 -10 10 0 6 5 10 10 10 6 0 10 -4 10 -10z m-714
-10 c22 -9 25 -13 14 -23 -10 -9 -13 -9 -17 1 -3 6 -14 12 -24 12 -11 0 -17 5
-14 10 8 12 8 12 41 0z m564 -4 c0 -3 -4 -8 -10 -11 -5 -3 -10 -1 -10 4 0 6 5
11 10 11 6 0 10 -2 10 -4z m-590 -31 c0 -8 -7 -15 -15 -15 -8 0 -15 7 -15 15
0 8 7 15 15 15 8 0 15 -7 15 -15z"/>
<path d="M14625 3050 c3 -5 8 -10 11 -10 2 0 4 5 4 10 0 6 -5 10 -11 10 -5 0
-7 -4 -4 -10z"/>
<path d="M2660 2784 c0 -14 3 -14 15 -4 8 7 15 14 15 16 0 2 -7 4 -15 4 -8 0
-15 -7 -15 -16z"/>
<path d="M6257 2425 c-26 -65 9 -155 60 -155 14 0 42 -9 62 -19 20 -11 54 -28
76 -37 22 -10 50 -30 63 -46 13 -15 29 -28 37 -28 7 0 15 -6 18 -13 3 -7 23
-19 46 -25 24 -8 58 -31 85 -57 35 -37 51 -45 79 -45 20 0 39 5 43 12 5 7 10
4 16 -11 7 -20 13 -22 46 -16 32 5 41 2 62 -19 24 -27 82 -36 95 -16 3 6 10
10 15 10 11 0 31 -60 24 -72 -9 -14 53 -68 78 -68 14 0 18 5 14 15 -3 8 -1 15
4 15 6 0 10 7 10 15 0 8 7 15 16 15 10 0 14 6 10 15 -3 8 -1 15 4 15 5 0 12
-10 15 -22 10 -31 45 -68 65 -68 8 0 26 -7 38 -16 13 -9 29 -13 37 -10 8 3 27
-7 42 -23 36 -36 114 -65 149 -57 16 4 30 18 37 35 11 29 11 29 44 13 18 -9
33 -22 33 -30 0 -19 64 -82 84 -82 25 0 93 49 99 71 7 25 24 24 32 -2 8 -24
51 -47 64 -33 5 5 11 28 15 52 6 38 4 42 -14 42 -11 0 -20 4 -20 10 0 5 -7 7
-15 4 -9 -4 -17 1 -21 12 -12 34 -36 55 -56 48 -12 -4 -31 5 -55 26 -37 33
-55 35 -137 14 -23 -5 -32 -2 -45 14 -23 28 -56 36 -74 17 -19 -19 -46 -20
-53 -1 -6 14 -57 32 -117 40 -27 3 -52 17 -83 46 -24 22 -49 40 -56 40 -7 1
-68 9 -135 19 -112 16 -173 37 -173 60 0 10 -77 55 -111 66 -16 5 -19 4 -14
-5 6 -9 -1 -10 -26 -5 -42 9 -59 22 -59 46 0 30 -78 59 -143 52 -47 -5 -58 -2
-76 16 l-21 21 23 1 c20 1 20 2 2 6 -11 3 -25 10 -32 15 -7 5 -17 7 -24 3 -8
-5 -9 1 -5 21 6 25 2 32 -24 48 -18 10 -57 20 -89 23 -48 5 -59 3 -64 -12z
m1270 -541 c-3 -3 -12 -4 -19 -1 -8 3 -5 6 6 6 11 1 17 -2 13 -5z m358 -84 c3
-5 1 -10 -4 -10 -6 0 -11 5 -11 10 0 6 2 10 4 10 3 0 8 -4 11 -10z"/>
<path d="M7062 1910 c0 -14 2 -19 5 -12 2 6 2 18 0 25 -3 6 -5 1 -5 -13z"/>
<path d="M7210 1850 c0 -5 5 -10 11 -10 5 0 7 5 4 10 -3 6 -8 10 -11 10 -2 0
-4 -4 -4 -10z"/>
<path d="M13680 1831 c0 -25 6 -27 13 -6 4 8 2 17 -3 20 -6 4 -10 -3 -10 -14z"/>
<path d="M9882 1746 c7 -8 15 -12 17 -11 5 6 -10 25 -20 25 -5 0 -4 -6 3 -14z"/>
<path d="M8017 1724 c-9 -10 2 -24 19 -24 8 0 14 7 14 15 0 15 -21 21 -33 9z"/>
<path d="M2877 1714 c-10 -11 -8 -74 2 -74 11 0 21 62 12 73 -4 4 -10 4 -14 1z"/>
<path d="M4385 1172 c-14 -15 -1 -23 32 -20 49 4 57 28 9 26 -20 -1 -38 -4
-41 -6z"/>
<path d="M9070 1170 c0 -5 5 -10 10 -10 6 0 10 5 10 10 0 6 -4 10 -10 10 -5 0
-10 -4 -10 -10z"/>
<path d="M6180 1159 c0 -9 57 -6 66 4 5 4 -8 7 -29 5 -20 -1 -37 -5 -37 -9z"/>
<path d="M9995 1130 c3 -5 11 -10 16 -10 6 0 7 5 4 10 -3 6 -11 10 -16 10 -6
0 -7 -4 -4 -10z"/>
<path d="M15700 1120 c0 -5 5 -10 10 -10 6 0 10 5 10 10 0 6 -4 10 -10 10 -5
0 -10 -4 -10 -10z"/>
<path d="M9840 1110 c0 -5 5 -10 10 -10 6 0 10 5 10 10 0 6 -4 10 -10 10 -5 0
-10 -4 -10 -10z"/>
<path d="M13170 900 c0 -5 4 -10 9 -10 6 0 13 5 16 10 3 6 -1 10 -9 10 -9 0
-16 -4 -16 -10z"/>
<path d="M7978 892 c-19 -4 -24 -27 -9 -36 14 -9 90 -10 99 -2 9 10 -28 37
-40 30 -5 -3 -14 -2 -21 3 -7 5 -20 8 -29 5z"/>
<path d="M9362 879 c5 -17 88 -26 88 -10 0 6 -10 11 -22 11 -13 0 -34 3 -47 7
-18 4 -23 2 -19 -8z"/>
<path d="M6755 818 c9 -41 25 -62 37 -50 6 6 3 24 -6 46 -19 46 -40 49 -31 4z"/>
<path d="M6515 190 c-3 -5 -2 -10 4 -10 5 0 13 5 16 10 3 6 2 10 -4 10 -5 0
-13 -4 -16 -10z"/>
</g>
</svg>
