<?xml version="1.0" standalone="no"?>
<!DOCTYPE svg PUBLIC "-//W3C//DTD SVG 20010904//EN"
 "http://www.w3.org/TR/2001/REC-SVG-20010904/DTD/svg10.dtd">
<svg version="1.0" xmlns="http://www.w3.org/2000/svg"
 width="1080.000000pt" height="714.000000pt" viewBox="0 0 1080.000000 714.000000"
 preserveAspectRatio="xMidYMid meet">

<g transform="translate(0.000000,714.000000) scale(0.100000,-0.100000)"
fill="#000000" stroke="none">
<path d="M6665 4364 c-16 -2 -82 -9 -145 -15 -227 -21 -413 -57 -642 -125
-461 -134 -828 -385 -828 -564 0 -43 -2 -46 -45 -69 -25 -13 -66 -46 -91 -74
l-45 -50 -22 20 c-51 47 -91 53 -158 26 -38 -15 -45 -15 -88 0 -63 23 -112 22
-145 -4 l-26 -21 -31 26 c-45 38 -87 34 -161 -14 -62 -40 -108 -52 -108 -27 0
20 -61 75 -92 82 -37 9 -68 -10 -68 -41 0 -20 -4 -25 -17 -20 -23 9 -199 51
-295 70 -148 30 -389 56 -523 56 -74 0 -135 4 -135 8 0 9 87 28 310 68 193 33
287 53 515 104 217 49 480 103 632 130 116 21 163 36 163 53 0 5 -13 7 -30 3
-22 -4 -32 -1 -36 9 -9 24 -49 18 -220 -30 -87 -25 -238 -61 -334 -80 -96 -19
-195 -39 -220 -44 -25 -6 -88 -18 -140 -27 -52 -9 -138 -25 -190 -36 -52 -11
-131 -24 -175 -29 -44 -5 -96 -14 -115 -19 -19 -5 -87 -16 -150 -25 -293 -40
-333 -52 -338 -101 -2 -22 2 -33 14 -38 9 -3 89 -1 178 5 191 13 413 5 587
-21 133 -20 368 -75 382 -89 5 -5 -61 -11 -145 -15 -84 -4 -218 -11 -298 -16
-293 -18 -855 -23 -1085 -9 -302 18 -360 18 -360 -1 0 -10 8 -14 23 -12 13 2
30 -2 39 -10 13 -11 212 -13 1084 -12 l1068 1 50 37 c28 20 54 36 59 36 4 0
18 -9 32 -20 32 -25 94 -25 139 -1 32 17 35 17 69 -1 47 -24 120 -23 151 1 24
19 25 19 74 -15 72 -50 100 -46 162 19 97 102 143 118 179 62 11 -17 26 -25
45 -25 16 0 64 -18 108 -40 43 -22 94 -45 113 -51 212 -64 312 -79 519 -79
303 0 601 65 655 142 20 28 21 78 1 104 -21 28 -19 31 22 39 21 4 49 13 64 20
21 11 33 12 57 3 23 -9 37 -9 57 0 23 11 31 9 55 -8 41 -30 89 -26 140 11 38
28 46 30 64 19 63 -40 135 -70 169 -70 51 0 140 26 200 58 45 24 49 25 65 9
14 -14 14 -21 4 -35 -24 -33 -24 -42 4 -67 31 -29 44 -31 89 -9 44 21 70 74
56 114 -9 27 -7 31 52 80 60 48 62 49 69 28 3 -13 6 -39 7 -59 1 -53 20 -70
92 -86 129 -28 137 -28 150 -1 22 49 -36 94 -105 81 -31 -6 -32 2 -15 107 14
85 6 99 -54 98 -45 -1 -77 -21 -77 -48 0 -9 -36 -45 -80 -79 -67 -52 -83 -60
-99 -51 -32 16 -77 12 -136 -15 -71 -31 -149 -45 -188 -34 -17 5 -48 20 -70
35 -57 37 -122 38 -170 2 -36 -29 -57 -35 -57 -19 0 5 -20 17 -45 27 -35 13
-49 14 -57 6 -21 -21 -28 -13 -28 28 0 47 -7 52 -83 54 l-52 1 0 -60 0 -60
-80 -26 -81 -27 -74 26 c-67 23 -91 26 -215 26 -206 1 -285 -32 -241 -99 9
-14 28 -28 43 -31 34 -9 252 3 370 20 102 14 140 6 169 -39 20 -31 10 -49 -44
-78 -163 -88 -549 -133 -797 -92 -190 30 -379 101 -438 163 l-28 29 31 26 c33
28 144 67 189 67 37 0 48 -10 60 -56 17 -63 88 -92 149 -60 15 8 34 26 41 40
12 22 12 29 -3 51 -9 14 -20 25 -25 25 -5 0 -28 16 -51 35 -34 28 -50 35 -85
35 -104 0 -220 -40 -288 -100 l-38 -33 -24 23 c-53 50 -24 152 70 243 160 158
442 300 760 383 297 77 465 98 775 99 235 0 262 -2 339 -23 94 -26 151 -52
181 -84 40 -44 19 -86 -88 -169 -87 -68 -128 -107 -121 -114 14 -14 206 141
230 187 18 33 13 94 -10 127 -28 38 -106 76 -201 97 -71 15 -355 28 -425 18z
m-340 -754 c-8 -13 -215 -13 -235 0 -10 7 27 10 113 10 83 0 126 -4 122 -10z"/>
</g>
</svg>
