<?xml version="1.0" standalone="no"?>
<!DOCTYPE svg PUBLIC "-//W3C//DTD SVG 20010904//EN"
 "http://www.w3.org/TR/2001/REC-SVG-20010904/DTD/svg10.dtd">
<svg version="1.0" xmlns="http://www.w3.org/2000/svg"
 width="654.000000pt" height="137.000000pt" viewBox="0 0 654.000000 137.000000"
 preserveAspectRatio="xMidYMid meet">

<g transform="translate(0.000000,137.000000) scale(0.100000,-0.100000)"
fill="#000000" stroke="none">
<path d="M4890 1334 c-403 -33 -698 -93 -981 -199 -227 -85 -441 -209 -553
-322 -68 -67 -95 -116 -103 -184 -5 -44 -10 -52 -37 -63 -17 -7 -57 -40 -88
-72 -50 -51 -59 -56 -70 -43 -40 49 -98 61 -166 33 -37 -14 -43 -14 -102 6
l-63 21 -48 -24 c-48 -23 -48 -23 -67 -4 -11 11 -39 21 -63 24 -38 4 -52 -1
-99 -32 -64 -41 -102 -54 -108 -36 -9 28 -65 80 -92 86 -35 8 -70 -9 -70 -34
0 -10 -2 -20 -5 -23 -3 -2 -37 4 -77 14 -256 66 -545 108 -745 108 -72 0 -134
4 -137 8 -6 10 76 28 299 67 150 27 249 47 445 90 299 66 553 118 725 149 44
8 92 19 108 25 34 13 37 36 3 27 -15 -4 -28 0 -36 9 -21 25 -30 24 -288 -50
-99 -28 -268 -63 -547 -115 -93 -17 -226 -42 -295 -55 -69 -13 -159 -29 -200
-35 -216 -34 -332 -52 -395 -60 -100 -14 -154 -36 -161 -67 -13 -50 5 -54 176
-42 281 20 554 0 822 -62 203 -47 207 -52 48 -60 -364 -20 -586 -29 -810 -34
-255 -6 -737 8 -850 25 -71 10 -110 5 -110 -15 0 -7 15 -16 32 -20 71 -15 531
-22 1338 -18 l845 3 53 37 53 36 38 -21 c47 -27 85 -27 130 -3 34 18 36 18 75
0 53 -24 107 -24 147 0 l32 19 39 -28 c73 -53 131 -46 179 21 27 39 96 89 121
89 11 0 32 -13 46 -30 15 -17 36 -30 50 -30 12 0 64 -20 115 -45 108 -52 199
-79 357 -105 269 -46 656 -11 853 77 81 36 109 97 71 151 -9 13 -14 24 -13 26
2 1 33 12 68 23 50 16 69 18 82 10 14 -8 27 -8 54 2 31 11 38 10 64 -8 46 -33
96 -26 148 22 l23 20 83 -41 c50 -25 98 -42 118 -42 44 0 127 24 197 57 50 24
55 24 70 9 14 -13 14 -20 4 -34 -24 -34 -24 -42 4 -67 36 -34 77 -28 117 16
25 27 28 38 25 80 l-3 48 60 45 60 45 11 -65 c6 -36 15 -69 21 -75 15 -15 177
-49 201 -42 24 6 32 30 21 60 -9 25 -67 46 -103 37 -24 -6 -26 -4 -26 27 0 18
5 59 12 90 15 76 5 90 -64 85 -49 -3 -67 -15 -68 -46 0 -8 -37 -43 -81 -77
-66 -51 -84 -61 -99 -53 -32 17 -83 11 -140 -16 -35 -17 -79 -28 -123 -32 -63
-4 -71 -3 -120 28 -71 44 -128 46 -185 6 -39 -27 -43 -28 -60 -13 -30 27 -78
40 -101 28 -18 -10 -20 -8 -23 31 l-3 43 -53 8 c-76 12 -82 8 -82 -61 l0 -59
-57 -17 c-32 -10 -69 -21 -83 -25 -16 -5 -47 0 -92 16 -116 40 -353 40 -437 0
-38 -18 -40 -58 -4 -87 27 -22 33 -22 163 -16 74 4 178 13 230 20 52 8 104 10
115 6 21 -8 75 -58 75 -70 0 -26 -111 -81 -224 -110 -281 -72 -595 -65 -857
19 -86 28 -194 82 -227 115 -33 32 36 81 149 106 71 16 109 8 109 -23 0 -90
118 -126 185 -57 26 27 26 29 11 59 -9 17 -21 31 -26 31 -5 0 -26 15 -46 33
-35 30 -42 32 -113 32 -98 -1 -190 -31 -255 -85 -49 -41 -61 -42 -88 -5 -14
18 -8 96 9 133 50 107 268 265 503 364 327 138 741 218 1127 218 265 0 448
-44 506 -122 31 -42 10 -76 -98 -163 -94 -76 -121 -102 -113 -110 14 -15 199
139 223 186 52 100 -29 186 -209 223 -76 16 -316 28 -406 20z m-382 -744 c12
0 22 -4 22 -10 0 -12 -199 -14 -227 -2 -25 10 66 21 132 16 28 -2 60 -4 73 -4z"/>
</g>
</svg>
